<?xml version="1.0" encoding="UTF-8" standalone="no"?>
<!DOCTYPE svg PUBLIC "-//W3C//DTD SVG 1.1//EN"
 "http://www.w3.org/Graphics/SVG/1.1/DTD/svg11.dtd">
<!-- Generated by graphviz version 2.43.0 (0)
 -->
<!-- Title: G Pages: 1 -->
<svg width="2374pt" height="472pt"
 viewBox="0.00 0.00 2374.00 471.60" xmlns="http://www.w3.org/2000/svg" xmlns:xlink="http://www.w3.org/1999/xlink">
<g id="graph0" class="graph" transform="scale(1 1) rotate(0) translate(4 467.6)">
<title>G</title>
<polygon fill="white" stroke="transparent" points="-4,4 -4,-467.6 2370,-467.6 2370,4 -4,4"/>
<g id="clust1" class="cluster">
<title>cluster_c1</title>
<g id="a_clust1"><a xlink:href="https://www.sesame-project.org/scenarios/scenario_c_bundle" xlink:title="exsce:scenario_c_bundle">
<polygon fill="none" stroke="black" points="8,-8 8,-455.6 2358,-455.6 2358,-8 8,-8"/>
<text text-anchor="middle" x="1183" y="-15.8" font-family="Times,serif" font-size="14.00">exsce:scenario_c_bundle</text>
</a>
</g>
</g>
<!-- n1 -->
<g id="node1" class="node">
<title>n1</title>
<g id="a_node1"><a xlink:href="https://www.sesame-project.org/scenarios/scenario_c" xlink:title="exsce:scenario_c">
<ellipse fill="#fffc87" stroke="#808080" cx="2003" cy="-140" rx="87.99" ry="18"/>
<text text-anchor="middle" x="2003" y="-136.3" font-family="Times,serif" font-size="14.00">exsce:scenario_c</text>
</a>
</g>
</g>
<!-- n2 -->
<g id="node3" class="node">
<title>n2</title>
<g id="a_node3"><a xlink:href="https://www.sesame-project.org/scenarios/missions/mission_c" xlink:title="mission:mission_c">
<ellipse fill="#fffc87" stroke="#808080" cx="1339" cy="-223" rx="94.48" ry="18"/>
<text text-anchor="middle" x="1339" y="-219.3" font-family="Times,serif" font-size="14.00">mission:mission_c</text>
</a>
</g>
</g>
<!-- n1&#45;&gt;n2 -->
<g id="edge7" class="edge">
<title>n1&#45;&gt;n2</title>
<path fill="none" stroke="black" d="M1925.71,-148.58C1817.39,-159.49 1614.33,-180.96 1442,-205 1433.74,-206.15 1425.13,-207.44 1416.55,-208.77"/>
<polygon fill="black" stroke="black" points="1415.85,-205.34 1406.52,-210.36 1416.94,-212.26 1415.85,-205.34"/>
<text text-anchor="middle" x="1689" y="-179" font-family="Times,serif" font-size="10.00">hadMember</text>
</g>
<!-- n7 -->
<g id="node13" class="node">
<title>n7</title>
<g id="a_node13"><a xlink:href="https://www.sesame-project.org/scenarios/environments/brsu_building_c_with_doors" xlink:title="env:brsu_building_c_with_doors">
<ellipse fill="lightgray" stroke="dimgray" cx="1885" cy="-223" rx="157.87" ry="18"/>
<text text-anchor="middle" x="1885" y="-219.3" font-family="Times,serif" font-size="14.00">env:brsu_building_c_with_doors</text>
</a>
</g>
</g>
<!-- n1&#45;&gt;n7 -->
<g id="edge8" class="edge">
<title>n1&#45;&gt;n7</title>
<path fill="none" stroke="black" d="M1979.12,-157.39C1961.52,-169.47 1937.37,-186.05 1917.94,-199.39"/>
<polygon fill="black" stroke="black" points="1915.92,-196.53 1909.66,-205.08 1919.88,-202.3 1915.92,-196.53"/>
<text text-anchor="middle" x="1983" y="-179" font-family="Times,serif" font-size="10.00">hadMember</text>
</g>
<!-- n8 -->
<g id="node14" class="node">
<title>n8</title>
<g id="a_node14"><a xlink:href="https://www.sesame-project.org/scenarios/robots/tiago1" xlink:title="robot:tiago1">
<ellipse fill="lightgray" stroke="dimgray" cx="2129" cy="-223" rx="67.69" ry="18"/>
<text text-anchor="middle" x="2129" y="-219.3" font-family="Times,serif" font-size="14.00">robot:tiago1</text>
</a>
</g>
</g>
<!-- n1&#45;&gt;n8 -->
<g id="edge9" class="edge">
<title>n1&#45;&gt;n8</title>
<path fill="none" stroke="black" d="M2028.5,-157.39C2047.88,-169.85 2074.7,-187.09 2095.76,-200.63"/>
<polygon fill="black" stroke="black" points="2094.09,-203.72 2104.4,-206.18 2097.88,-197.83 2094.09,-203.72"/>
<text text-anchor="middle" x="2105" y="-179" font-family="Times,serif" font-size="10.00">hadMember</text>
</g>
<!-- n11 -->
<g id="node19" class="node">
<title>n11</title>
<g id="a_node19"><a xlink:href="https://www.sesame-project.org/scenarios/robots/tiago2" xlink:title="robot:tiago2">
<ellipse fill="lightgray" stroke="dimgray" cx="2282" cy="-223" rx="67.69" ry="18"/>
<text text-anchor="middle" x="2282" y="-219.3" font-family="Times,serif" font-size="14.00">robot:tiago2</text>
</a>
</g>
</g>
<!-- n1&#45;&gt;n11 -->
<g id="edge13" class="edge">
<title>n1&#45;&gt;n11</title>
<path fill="none" stroke="black" d="M2057.96,-154.04C2083.34,-160.3 2113.82,-168.13 2141,-176 2171.73,-184.9 2205.84,-195.99 2232.82,-205.06"/>
<polygon fill="black" stroke="black" points="2231.82,-208.42 2242.41,-208.3 2234.06,-201.78 2231.82,-208.42"/>
<text text-anchor="middle" x="2208" y="-179" font-family="Times,serif" font-size="10.00">hadMember</text>
</g>
<!-- ann1 -->
<g id="node2" class="node">
<title>ann1</title>
<polygon fill="none" stroke="gray" points="2093.5,-75 1906.5,-75 1906.5,-39 2099.5,-39 2099.5,-69 2093.5,-75"/>
<polyline fill="none" stroke="gray" points="2093.5,-75 2093.5,-69 "/>
<polyline fill="none" stroke="gray" points="2099.5,-69 2093.5,-69 "/>
<g id="a_node2_0"><a xlink:href="http://www.w3.org/ns/prov#type" xlink:title="&lt;TABLE&gt;">
<text text-anchor="start" x="1917" y="-54" font-family="Times,serif" font-size="10.00">prov:type</text>
</a>
</g>
<text text-anchor="start" x="1968" y="-54" font-family="Times,serif" font-size="10.00">exsce:ConcreteScenario</text>
</g>
<!-- ann1&#45;&gt;n1 -->
<g id="edge1" class="edge">
<title>ann1&#45;&gt;n1</title>
<path fill="none" stroke="gray" stroke-dasharray="5,2" d="M2003,-75.18C2003,-88.92 2003,-108.11 2003,-121.85"/>
</g>
<!-- n3 -->
<g id="node5" class="node">
<title>n3</title>
<g id="a_node5"><a xlink:href="https://www.sesame-project.org/scenarios/missions/mission_c/tiago1-task_01" xlink:title="mission_c:tiago1&#45;task_01">
<ellipse fill="#fffc87" stroke="#808080" cx="1557" cy="-306" rx="126.18" ry="18"/>
<text text-anchor="middle" x="1557" y="-302.3" font-family="Times,serif" font-size="14.00">mission_c:tiago1&#45;task_01</text>
</a>
</g>
</g>
<!-- n2&#45;&gt;n3 -->
<g id="edge17" class="edge">
<title>n2&#45;&gt;n3</title>
<path fill="none" stroke="black" d="M1380,-239.24C1415.25,-252.33 1466.29,-271.3 1504.52,-285.5"/>
<polygon fill="black" stroke="black" points="1503.35,-288.8 1513.94,-289 1505.79,-282.24 1503.35,-288.8"/>
<text text-anchor="middle" x="1493" y="-262" font-family="Times,serif" font-size="10.00">hadMember</text>
</g>
<!-- n4 -->
<g id="node7" class="node">
<title>n4</title>
<g id="a_node7"><a xlink:href="https://www.sesame-project.org/scenarios/missions/mission_c/tiago2-task_01" xlink:title="mission_c:tiago2&#45;task_01">
<ellipse fill="#fffc87" stroke="#808080" cx="2019" cy="-306" rx="126.18" ry="18"/>
<text text-anchor="middle" x="2019" y="-302.3" font-family="Times,serif" font-size="14.00">mission_c:tiago2&#45;task_01</text>
</a>
</g>
</g>
<!-- n2&#45;&gt;n4 -->
<g id="edge21" class="edge">
<title>n2&#45;&gt;n4</title>
<path fill="none" stroke="black" d="M1406.23,-235.67C1418.13,-237.57 1430.42,-239.43 1442,-241 1637.76,-267.54 1687.77,-265.21 1884,-288 1895.16,-289.3 1906.84,-290.7 1918.45,-292.12"/>
<polygon fill="black" stroke="black" points="1918.27,-295.62 1928.62,-293.37 1919.12,-288.68 1918.27,-295.62"/>
<text text-anchor="middle" x="1739" y="-262" font-family="Times,serif" font-size="10.00">hadMember</text>
</g>
<!-- n5 -->
<g id="node9" class="node">
<title>n5</title>
<g id="a_node9"><a xlink:href="https://www.sesame-project.org/scenarios/missions/mission_c/tiago1-task_02" xlink:title="mission_c:tiago1&#45;task_02">
<ellipse fill="#fffc87" stroke="#808080" cx="633" cy="-306" rx="126.18" ry="18"/>
<text text-anchor="middle" x="633" y="-302.3" font-family="Times,serif" font-size="14.00">mission_c:tiago1&#45;task_02</text>
</a>
</g>
</g>
<!-- n2&#45;&gt;n5 -->
<g id="edge25" class="edge">
<title>n2&#45;&gt;n5</title>
<path fill="none" stroke="black" d="M1272.05,-235.68C1260.07,-237.59 1247.68,-239.45 1236,-241 1028.77,-268.48 975.72,-264.49 768,-288 756.74,-289.27 744.97,-290.67 733.26,-292.09"/>
<polygon fill="black" stroke="black" points="732.51,-288.66 723.01,-293.35 733.36,-295.6 732.51,-288.66"/>
<text text-anchor="middle" x="1106" y="-262" font-family="Times,serif" font-size="10.00">hadMember</text>
</g>
<!-- n6 -->
<g id="node11" class="node">
<title>n6</title>
<g id="a_node11"><a xlink:href="https://www.sesame-project.org/scenarios/missions/mission_c/tiago2-task_02" xlink:title="mission_c:tiago2&#45;task_02">
<ellipse fill="#fffc87" stroke="#808080" cx="1095" cy="-306" rx="126.18" ry="18"/>
<text text-anchor="middle" x="1095" y="-302.3" font-family="Times,serif" font-size="14.00">mission_c:tiago2&#45;task_02</text>
</a>
</g>
</g>
<!-- n2&#45;&gt;n6 -->
<g id="edge29" class="edge">
<title>n2&#45;&gt;n6</title>
<path fill="none" stroke="black" d="M1294.25,-238.86C1254.21,-252.15 1195.32,-271.7 1151.95,-286.1"/>
<polygon fill="black" stroke="black" points="1150.77,-282.8 1142.38,-289.27 1152.98,-289.44 1150.77,-282.8"/>
<text text-anchor="middle" x="1263" y="-262" font-family="Times,serif" font-size="10.00">hadMember</text>
</g>
<!-- ann2 -->
<g id="node4" class="node">
<title>ann2</title>
<polygon fill="none" stroke="gray" points="1428,-158 1244,-158 1244,-122 1434,-122 1434,-152 1428,-158"/>
<polyline fill="none" stroke="gray" points="1428,-158 1428,-152 "/>
<polyline fill="none" stroke="gray" points="1434,-152 1428,-152 "/>
<g id="a_node4_1"><a xlink:href="http://www.w3.org/ns/prov#type" xlink:title="&lt;TABLE&gt;">
<text text-anchor="start" x="1254" y="-144" font-family="Times,serif" font-size="10.00">prov:type</text>
</a>
</g>
<text text-anchor="start" x="1353" y="-144" font-family="Times,serif" font-size="10.00">exsce:mission</text>
<g id="a_node4_2"><a xlink:href="https://www.sesame-project.org/scenarios/missionType" xlink:title="&lt;TABLE&gt;">
<text text-anchor="start" x="1254" y="-131" font-family="Times,serif" font-size="10.00">exsce:missionType</text>
</a>
</g>
<text text-anchor="start" x="1353" y="-131" font-family="Times,serif" font-size="10.00">parallel</text>
</g>
<!-- ann2&#45;&gt;n2 -->
<g id="edge2" class="edge">
<title>ann2&#45;&gt;n2</title>
<path fill="none" stroke="gray" stroke-dasharray="5,2" d="M1339,-158.18C1339,-171.92 1339,-191.11 1339,-204.85"/>
</g>
<!-- b3 -->
<g id="node24" class="node">
<title>b3</title>
<ellipse fill="gray" stroke="gray" cx="1457" cy="-372.8" rx="1.8" ry="1.8"/>
</g>
<!-- n3&#45;&gt;b3 -->
<g id="edge18" class="edge">
<title>n3&#45;&gt;b3</title>
<path fill="none" stroke="black" d="M1531.25,-323.69C1504.4,-341.09 1465.23,-366.46 1458.13,-371.07"/>
<text text-anchor="middle" x="1545" y="-345" font-family="Times,serif" font-size="10.00">wasDerivedFrom</text>
</g>
<!-- ann3 -->
<g id="node6" class="node">
<title>ann3</title>
<polygon fill="none" stroke="gray" points="1565,-241 1451,-241 1451,-205 1571,-205 1571,-235 1565,-241"/>
<polyline fill="none" stroke="gray" points="1565,-241 1565,-235 "/>
<polyline fill="none" stroke="gray" points="1571,-235 1565,-235 "/>
<g id="a_node6_3"><a xlink:href="http://www.w3.org/ns/prov#type" xlink:title="&lt;TABLE&gt;">
<text text-anchor="start" x="1461" y="-220" font-family="Times,serif" font-size="10.00">prov:type</text>
</a>
</g>
<text text-anchor="start" x="1512" y="-220" font-family="Times,serif" font-size="10.00">prov:Plan</text>
</g>
<!-- ann3&#45;&gt;n3 -->
<g id="edge3" class="edge">
<title>ann3&#45;&gt;n3</title>
<path fill="none" stroke="gray" stroke-dasharray="5,2" d="M1520.76,-241.18C1528.56,-254.92 1539.46,-274.11 1547.26,-287.85"/>
</g>
<!-- b4 -->
<g id="node27" class="node">
<title>b4</title>
<ellipse fill="gray" stroke="gray" cx="1903" cy="-372.8" rx="1.8" ry="1.8"/>
</g>
<!-- n4&#45;&gt;b4 -->
<g id="edge22" class="edge">
<title>n4&#45;&gt;b4</title>
<path fill="none" stroke="black" d="M1989.43,-323.52C1958.28,-340.92 1912.61,-366.43 1904.32,-371.07"/>
<text text-anchor="middle" x="1998" y="-345" font-family="Times,serif" font-size="10.00">wasDerivedFrom</text>
</g>
<!-- ann4 -->
<g id="node8" class="node">
<title>ann4</title>
<polygon fill="none" stroke="gray" points="1703,-241 1589,-241 1589,-205 1709,-205 1709,-235 1703,-241"/>
<polyline fill="none" stroke="gray" points="1703,-241 1703,-235 "/>
<polyline fill="none" stroke="gray" points="1709,-235 1703,-235 "/>
<g id="a_node8_4"><a xlink:href="http://www.w3.org/ns/prov#type" xlink:title="&lt;TABLE&gt;">
<text text-anchor="start" x="1599" y="-220" font-family="Times,serif" font-size="10.00">prov:type</text>
</a>
</g>
<text text-anchor="start" x="1650" y="-220" font-family="Times,serif" font-size="10.00">prov:Plan</text>
</g>
<!-- ann4&#45;&gt;n4 -->
<g id="edge4" class="edge">
<title>ann4&#45;&gt;n4</title>
<path fill="none" stroke="gray" stroke-dasharray="5,2" d="M1709.18,-238.95C1712.16,-239.65 1715.11,-240.34 1718,-241 1797.28,-259.19 1888.72,-278.38 1949.82,-290.95"/>
</g>
<!-- b5 -->
<g id="node30" class="node">
<title>b5</title>
<ellipse fill="gray" stroke="gray" cx="518" cy="-372.8" rx="1.8" ry="1.8"/>
</g>
<!-- n5&#45;&gt;b5 -->
<g id="edge26" class="edge">
<title>n5&#45;&gt;b5</title>
<path fill="none" stroke="black" d="M603.68,-323.52C572.81,-340.92 527.52,-366.43 519.3,-371.07"/>
<text text-anchor="middle" x="612" y="-345" font-family="Times,serif" font-size="10.00">wasDerivedFrom</text>
</g>
<!-- ann5 -->
<g id="node10" class="node">
<title>ann5</title>
<polygon fill="none" stroke="gray" points="1083,-241 969,-241 969,-205 1089,-205 1089,-235 1083,-241"/>
<polyline fill="none" stroke="gray" points="1083,-241 1083,-235 "/>
<polyline fill="none" stroke="gray" points="1089,-235 1083,-235 "/>
<g id="a_node10_5"><a xlink:href="http://www.w3.org/ns/prov#type" xlink:title="&lt;TABLE&gt;">
<text text-anchor="start" x="979" y="-220" font-family="Times,serif" font-size="10.00">prov:type</text>
</a>
</g>
<text text-anchor="start" x="1030" y="-220" font-family="Times,serif" font-size="10.00">prov:Plan</text>
</g>
<!-- ann5&#45;&gt;n5 -->
<g id="edge5" class="edge">
<title>ann5&#45;&gt;n5</title>
<path fill="none" stroke="gray" stroke-dasharray="5,2" d="M968.83,-239.01C965.85,-239.69 962.89,-240.36 960,-241 873.72,-260.06 773.98,-279.16 707.56,-291.47"/>
</g>
<!-- b6 -->
<g id="node33" class="node">
<title>b6</title>
<ellipse fill="gray" stroke="gray" cx="980" cy="-372.8" rx="1.8" ry="1.8"/>
</g>
<!-- n6&#45;&gt;b6 -->
<g id="edge30" class="edge">
<title>n6&#45;&gt;b6</title>
<path fill="none" stroke="black" d="M1065.68,-323.52C1034.81,-340.92 989.52,-366.43 981.3,-371.07"/>
<text text-anchor="middle" x="1074" y="-345" font-family="Times,serif" font-size="10.00">wasDerivedFrom</text>
</g>
<!-- ann6 -->
<g id="node12" class="node">
<title>ann6</title>
<polygon fill="none" stroke="gray" points="1221,-241 1107,-241 1107,-205 1227,-205 1227,-235 1221,-241"/>
<polyline fill="none" stroke="gray" points="1221,-241 1221,-235 "/>
<polyline fill="none" stroke="gray" points="1227,-235 1221,-235 "/>
<g id="a_node12_6"><a xlink:href="http://www.w3.org/ns/prov#type" xlink:title="&lt;TABLE&gt;">
<text text-anchor="start" x="1117" y="-220" font-family="Times,serif" font-size="10.00">prov:type</text>
</a>
</g>
<text text-anchor="start" x="1168" y="-220" font-family="Times,serif" font-size="10.00">prov:Plan</text>
</g>
<!-- ann6&#45;&gt;n6 -->
<g id="edge6" class="edge">
<title>ann6&#45;&gt;n6</title>
<path fill="none" stroke="gray" stroke-dasharray="5,2" d="M1151.73,-241.18C1139.43,-255.02 1122.23,-274.37 1110,-288.12"/>
</g>
<!-- b1 -->
<g id="node15" class="node">
<title>b1</title>
<ellipse fill="gray" stroke="gray" cx="722" cy="-140" rx="1.8" ry="1.8"/>
</g>
<!-- n10 -->
<g id="node17" class="node">
<title>n10</title>
<g id="a_node17"><a xlink:href="https://www.sesame-project.org/scenarios/tasks/waypoints/classroom_c025-w001-R0.00_P0.00_Y0.00" xlink:title="pose:classroom_c025&#45;w001&#45;R0.00_P0.00_Y0.00">
<ellipse fill="lightgray" stroke="dimgray" cx="722" cy="-223" rx="229.36" ry="18"/>
<text text-anchor="middle" x="722" y="-219.3" font-family="Times,serif" font-size="14.00">pose:classroom_c025&#45;w001&#45;R0.00_P0.00_Y0.00</text>
</a>
</g>
</g>
<!-- b1&#45;&gt;n10 -->
<g id="edge11" class="edge">
<title>b1&#45;&gt;n10</title>
<path fill="none" stroke="black" d="M722,-141.91C722,-147.11 722,-173.62 722,-194.74"/>
<polygon fill="black" stroke="black" points="718.5,-194.85 722,-204.85 725.5,-194.85 718.5,-194.85"/>
</g>
<!-- n9 -->
<g id="node16" class="node">
<title>n9</title>
<g id="a_node16"><a xlink:href="https://www.sesame-project.org/scenarios/robots/tiago1/gazebo_model" xlink:title="tiago1:gazebo_model">
<ellipse fill="lightgray" stroke="dimgray" cx="652" cy="-57" rx="108.58" ry="18"/>
<text text-anchor="middle" x="652" y="-53.3" font-family="Times,serif" font-size="14.00">tiago1:gazebo_model</text>
</a>
</g>
</g>
<!-- n9&#45;&gt;b1 -->
<g id="edge10" class="edge">
<title>n9&#45;&gt;b1</title>
<path fill="none" stroke="black" d="M666.85,-75.18C685.79,-97.1 716.68,-132.84 721.39,-138.29"/>
<text text-anchor="middle" x="735" y="-96" font-family="Times,serif" font-size="10.00">wasDerivedFrom</text>
</g>
<!-- ann7 -->
<g id="node18" class="node">
<title>ann7</title>
<polygon fill="none" stroke="gray" points="923.5,-75 778.5,-75 778.5,-39 929.5,-39 929.5,-69 923.5,-75"/>
<polyline fill="none" stroke="gray" points="923.5,-75 923.5,-69 "/>
<polyline fill="none" stroke="gray" points="929.5,-69 923.5,-69 "/>
<g id="a_node18_7"><a xlink:href="http://www.w3.org/ns/prov#role" xlink:title="&lt;TABLE&gt;">
<text text-anchor="start" x="789" y="-61" font-family="Times,serif" font-size="10.00">prov:role</text>
</a>
</g>
<text text-anchor="start" x="866" y="-61" font-family="Times,serif" font-size="10.00">start_pose</text>
<g id="a_node18_8"><a xlink:href="https://www.sesame-project.org/scenarios/scenario" xlink:title="&lt;TABLE&gt;">
<text text-anchor="start" x="789" y="-48" font-family="Times,serif" font-size="10.00">exsce:scenario</text>
</a>
</g>
<text text-anchor="start" x="866" y="-48" font-family="Times,serif" font-size="10.00">scenario_c</text>
</g>
<!-- ann7&#45;&gt;b1 -->
<g id="edge12" class="edge">
<title>ann7&#45;&gt;b1</title>
<path fill="none" stroke="gray" stroke-dasharray="5,2" d="M828.25,-75.16C814.86,-83.96 798.17,-94.74 783,-104 759.65,-118.25 730.46,-134.36 723.53,-138.16"/>
</g>
<!-- b2 -->
<g id="node20" class="node">
<title>b2</title>
<ellipse fill="gray" stroke="gray" cx="245" cy="-140" rx="1.8" ry="1.8"/>
</g>
<!-- n13 -->
<g id="node22" class="node">
<title>n13</title>
<g id="a_node22"><a xlink:href="https://www.sesame-project.org/scenarios/tasks/waypoints/classroom_c025-w002-R0.00_P0.00_Y0.00" xlink:title="pose:classroom_c025&#45;w002&#45;R0.00_P0.00_Y0.00">
<ellipse fill="lightgray" stroke="dimgray" cx="245" cy="-223" rx="229.36" ry="18"/>
<text text-anchor="middle" x="245" y="-219.3" font-family="Times,serif" font-size="14.00">pose:classroom_c025&#45;w002&#45;R0.00_P0.00_Y0.00</text>
</a>
</g>
</g>
<!-- b2&#45;&gt;n13 -->
<g id="edge15" class="edge">
<title>b2&#45;&gt;n13</title>
<path fill="none" stroke="black" d="M245,-141.91C245,-147.11 245,-173.62 245,-194.74"/>
<polygon fill="black" stroke="black" points="241.5,-194.85 245,-204.85 248.5,-194.85 241.5,-194.85"/>
</g>
<!-- n12 -->
<g id="node21" class="node">
<title>n12</title>
<g id="a_node21"><a xlink:href="https://www.sesame-project.org/scenarios/robots/tiago2/gazebo_model" xlink:title="tiago2:gazebo_model">
<ellipse fill="lightgray" stroke="dimgray" cx="204" cy="-57" rx="108.58" ry="18"/>
<text text-anchor="middle" x="204" y="-53.3" font-family="Times,serif" font-size="14.00">tiago2:gazebo_model</text>
</a>
</g>
</g>
<!-- n12&#45;&gt;b2 -->
<g id="edge14" class="edge">
<title>n12&#45;&gt;b2</title>
<path fill="none" stroke="black" d="M212.7,-75.18C223.6,-96.73 241.27,-131.63 244.49,-137.99"/>
<text text-anchor="middle" x="270" y="-96" font-family="Times,serif" font-size="10.00">wasDerivedFrom</text>
</g>
<!-- ann8 -->
<g id="node23" class="node">
<title>ann8</title>
<polygon fill="none" stroke="gray" points="475.5,-75 330.5,-75 330.5,-39 481.5,-39 481.5,-69 475.5,-75"/>
<polyline fill="none" stroke="gray" points="475.5,-75 475.5,-69 "/>
<polyline fill="none" stroke="gray" points="481.5,-69 475.5,-69 "/>
<g id="a_node23_9"><a xlink:href="http://www.w3.org/ns/prov#role" xlink:title="&lt;TABLE&gt;">
<text text-anchor="start" x="341" y="-61" font-family="Times,serif" font-size="10.00">prov:role</text>
</a>
</g>
<text text-anchor="start" x="418" y="-61" font-family="Times,serif" font-size="10.00">start_pose</text>
<g id="a_node23_10"><a xlink:href="https://www.sesame-project.org/scenarios/scenario" xlink:title="&lt;TABLE&gt;">
<text text-anchor="start" x="341" y="-48" font-family="Times,serif" font-size="10.00">exsce:scenario</text>
</a>
</g>
<text text-anchor="start" x="418" y="-48" font-family="Times,serif" font-size="10.00">scenario_c</text>
</g>
<!-- ann8&#45;&gt;b2 -->
<g id="edge16" class="edge">
<title>ann8&#45;&gt;b2</title>
<path fill="none" stroke="gray" stroke-dasharray="5,2" d="M373.95,-75.09C357.33,-83.87 336.65,-94.66 318,-104 288.85,-118.6 252.58,-135.48 246.04,-138.52"/>
</g>
<!-- n14 -->
<g id="node25" class="node">
<title>n14</title>
<g id="a_node25"><a xlink:href="https://www.sesame-project.org/scenarios/tasks/delivery_a.yaml" xlink:title="task:delivery_a.yaml">
<ellipse fill="lightgray" stroke="dimgray" cx="1457" cy="-429.6" rx="105.88" ry="18"/>
<text text-anchor="middle" x="1457" y="-425.9" font-family="Times,serif" font-size="14.00">task:delivery_a.yaml</text>
</a>
</g>
</g>
<!-- b3&#45;&gt;n14 -->
<g id="edge19" class="edge">
<title>b3&#45;&gt;n14</title>
<path fill="none" stroke="black" d="M1457,-374.75C1457,-378.11 1457,-389.87 1457,-401.55"/>
<polygon fill="black" stroke="black" points="1453.5,-401.58 1457,-411.58 1460.5,-401.58 1453.5,-401.58"/>
</g>
<!-- ann9 -->
<g id="node26" class="node">
<title>ann9</title>
<polygon fill="none" stroke="gray" points="1407,-324 1239,-324 1239,-288 1413,-288 1413,-318 1407,-324"/>
<polyline fill="none" stroke="gray" points="1407,-324 1407,-318 "/>
<polyline fill="none" stroke="gray" points="1413,-318 1407,-318 "/>
<g id="a_node26_11"><a xlink:href="http://www.w3.org/ns/prov#type" xlink:title="&lt;TABLE&gt;">
<text text-anchor="start" x="1249" y="-303" font-family="Times,serif" font-size="10.00">prov:type</text>
</a>
</g>
<text text-anchor="start" x="1300" y="-303" font-family="Times,serif" font-size="10.00">prov:PrimarySource</text>
</g>
<!-- ann9&#45;&gt;b3 -->
<g id="edge20" class="edge">
<title>ann9&#45;&gt;b3</title>
<path fill="none" stroke="gray" stroke-dasharray="5,2" d="M1360.42,-324.03C1396.2,-341.72 1448.09,-367.39 1455.98,-371.29"/>
</g>
<!-- n15 -->
<g id="node28" class="node">
<title>n15</title>
<g id="a_node28"><a xlink:href="https://www.sesame-project.org/scenarios/tasks/delivery_b.yaml" xlink:title="task:delivery_b.yaml">
<ellipse fill="lightgray" stroke="dimgray" cx="1903" cy="-429.6" rx="106.68" ry="18"/>
<text text-anchor="middle" x="1903" y="-425.9" font-family="Times,serif" font-size="14.00">task:delivery_b.yaml</text>
</a>
</g>
</g>
<!-- b4&#45;&gt;n15 -->
<g id="edge23" class="edge">
<title>b4&#45;&gt;n15</title>
<path fill="none" stroke="black" d="M1903,-374.75C1903,-378.11 1903,-389.87 1903,-401.55"/>
<polygon fill="black" stroke="black" points="1899.5,-401.58 1903,-411.58 1906.5,-401.58 1899.5,-401.58"/>
</g>
<!-- ann10 -->
<g id="node29" class="node">
<title>ann10</title>
<polygon fill="none" stroke="gray" points="1869,-324 1701,-324 1701,-288 1875,-288 1875,-318 1869,-324"/>
<polyline fill="none" stroke="gray" points="1869,-324 1869,-318 "/>
<polyline fill="none" stroke="gray" points="1875,-318 1869,-318 "/>
<g id="a_node29_12"><a xlink:href="http://www.w3.org/ns/prov#type" xlink:title="&lt;TABLE&gt;">
<text text-anchor="start" x="1711" y="-303" font-family="Times,serif" font-size="10.00">prov:type</text>
</a>
</g>
<text text-anchor="start" x="1762" y="-303" font-family="Times,serif" font-size="10.00">prov:PrimarySource</text>
</g>
<!-- ann10&#45;&gt;b4 -->
<g id="edge24" class="edge">
<title>ann10&#45;&gt;b4</title>
<path fill="none" stroke="gray" stroke-dasharray="5,2" d="M1818.21,-324.03C1849.09,-341.42 1893.64,-366.52 1901.72,-371.08"/>
</g>
<!-- n16 -->
<g id="node31" class="node">
<title>n16</title>
<g id="a_node31"><a xlink:href="https://www.sesame-project.org/scenarios/tasks/navigate_home_1.yaml" xlink:title="task:navigate_home_1.yaml">
<ellipse fill="lightgray" stroke="dimgray" cx="518" cy="-429.6" rx="138.38" ry="18"/>
<text text-anchor="middle" x="518" y="-425.9" font-family="Times,serif" font-size="14.00">task:navigate_home_1.yaml</text>
</a>
</g>
</g>
<!-- b5&#45;&gt;n16 -->
<g id="edge27" class="edge">
<title>b5&#45;&gt;n16</title>
<path fill="none" stroke="black" d="M518,-374.75C518,-378.11 518,-389.87 518,-401.55"/>
<polygon fill="black" stroke="black" points="514.5,-401.58 518,-411.58 521.5,-401.58 514.5,-401.58"/>
</g>
<!-- ann11 -->
<g id="node32" class="node">
<title>ann11</title>
<polygon fill="none" stroke="gray" points="483,-324 315,-324 315,-288 489,-288 489,-318 483,-324"/>
<polyline fill="none" stroke="gray" points="483,-324 483,-318 "/>
<polyline fill="none" stroke="gray" points="489,-318 483,-318 "/>
<g id="a_node32_13"><a xlink:href="http://www.w3.org/ns/prov#type" xlink:title="&lt;TABLE&gt;">
<text text-anchor="start" x="325" y="-303" font-family="Times,serif" font-size="10.00">prov:type</text>
</a>
</g>
<text text-anchor="start" x="376" y="-303" font-family="Times,serif" font-size="10.00">prov:PrimarySource</text>
</g>
<!-- ann11&#45;&gt;b5 -->
<g id="edge28" class="edge">
<title>ann11&#45;&gt;b5</title>
<path fill="none" stroke="gray" stroke-dasharray="5,2" d="M432.48,-324.03C463.62,-341.42 508.56,-366.52 516.71,-371.08"/>
</g>
<!-- n17 -->
<g id="node34" class="node">
<title>n17</title>
<g id="a_node34"><a xlink:href="https://www.sesame-project.org/scenarios/tasks/navigate_home_2.yaml" xlink:title="task:navigate_home_2.yaml">
<ellipse fill="lightgray" stroke="dimgray" cx="980" cy="-429.6" rx="138.38" ry="18"/>
<text text-anchor="middle" x="980" y="-425.9" font-family="Times,serif" font-size="14.00">task:navigate_home_2.yaml</text>
</a>
</g>
</g>
<!-- b6&#45;&gt;n17 -->
<g id="edge31" class="edge">
<title>b6&#45;&gt;n17</title>
<path fill="none" stroke="black" d="M980,-374.75C980,-378.11 980,-389.87 980,-401.55"/>
<polygon fill="black" stroke="black" points="976.5,-401.58 980,-411.58 983.5,-401.58 976.5,-401.58"/>
</g>
<!-- ann12 -->
<g id="node35" class="node">
<title>ann12</title>
<polygon fill="none" stroke="gray" points="945,-324 777,-324 777,-288 951,-288 951,-318 945,-324"/>
<polyline fill="none" stroke="gray" points="945,-324 945,-318 "/>
<polyline fill="none" stroke="gray" points="951,-318 945,-318 "/>
<g id="a_node35_14"><a xlink:href="http://www.w3.org/ns/prov#type" xlink:title="&lt;TABLE&gt;">
<text text-anchor="start" x="787" y="-303" font-family="Times,serif" font-size="10.00">prov:type</text>
</a>
</g>
<text text-anchor="start" x="838" y="-303" font-family="Times,serif" font-size="10.00">prov:PrimarySource</text>
</g>
<!-- ann12&#45;&gt;b6 -->
<g id="edge32" class="edge">
<title>ann12&#45;&gt;b6</title>
<path fill="none" stroke="gray" stroke-dasharray="5,2" d="M894.48,-324.03C925.62,-341.42 970.56,-366.52 978.71,-371.08"/>
</g>
</g>
</svg>
