<?xml version="1.0" encoding="UTF-8" standalone="no"?>
<!DOCTYPE svg PUBLIC "-//W3C//DTD SVG 1.1//EN"
 "http://www.w3.org/Graphics/SVG/1.1/DTD/svg11.dtd">
<!-- Generated by graphviz version 2.43.0 (0)
 -->
<!-- Title: G Pages: 1 -->
<svg width="979pt" height="465pt"
 viewBox="0.00 0.00 979.00 464.60" xmlns="http://www.w3.org/2000/svg" xmlns:xlink="http://www.w3.org/1999/xlink">
<g id="graph0" class="graph" transform="scale(1 1) rotate(0) translate(4 460.6)">
<title>G</title>
<polygon fill="white" stroke="transparent" points="-4,4 -4,-460.6 975,-460.6 975,4 -4,4"/>
<g id="clust1" class="cluster">
<title>cluster_c1</title>
<g id="a_clust1"><a xlink:href="https://www.sesame-project.org/scenarios/tasks/delivery_a.yaml_bundle" xlink:title="task:delivery_a.yaml_bundle">
<polygon fill="none" stroke="black" points="8,-8 8,-448.6 963,-448.6 963,-8 8,-8"/>
<text text-anchor="middle" x="485.5" y="-15.8" font-family="Times,serif" font-size="14.00">task:delivery_a.yaml_bundle</text>
</a>
</g>
</g>
<!-- n1 -->
<g id="node1" class="node">
<title>n1</title>
<g id="a_node1"><a xlink:href="https://www.sesame-project.org/scenarios/tasks/delivery_a.yaml" xlink:title="task:delivery_a.yaml">
<ellipse fill="#fffc87" stroke="#808080" cx="607" cy="-143" rx="105.88" ry="18"/>
<text text-anchor="middle" x="607" y="-139.3" font-family="Times,serif" font-size="14.00">task:delivery_a.yaml</text>
</a>
</g>
</g>
<!-- b1 -->
<g id="node5" class="node">
<title>b1</title>
<ellipse fill="gray" stroke="gray" cx="465" cy="-226" rx="1.8" ry="1.8"/>
</g>
<!-- n1&#45;&gt;b1 -->
<g id="edge3" class="edge">
<title>n1&#45;&gt;b1</title>
<path fill="none" stroke="black" d="M561.24,-159.26C534.27,-169.88 500.71,-186.08 476,-208 470.53,-212.85 466.69,-221.04 465.44,-223.94"/>
<text text-anchor="middle" x="559" y="-182" font-family="Times,serif" font-size="10.00">wasDerivedFrom</text>
</g>
<!-- ann1 -->
<g id="node2" class="node">
<title>ann1</title>
<polygon fill="none" stroke="gray" points="727.5,-88 480.5,-88 480.5,-39 733.5,-39 733.5,-82 727.5,-88"/>
<polyline fill="none" stroke="gray" points="727.5,-88 727.5,-82 "/>
<polyline fill="none" stroke="gray" points="733.5,-82 727.5,-82 "/>
<g id="a_node2_0"><a xlink:href="http://www.w3.org/ns/prov#type" xlink:title="&lt;TABLE&gt;">
<text text-anchor="start" x="491" y="-73.5" font-family="Times,serif" font-size="10.00">prov:type</text>
</a>
</g>
<text text-anchor="start" x="579" y="-73.5" font-family="Times,serif" font-size="10.00">prov:Plan</text>
<g id="a_node2_1"><a xlink:href="http://wiki.ros.org/pkg" xlink:title="&lt;TABLE&gt;">
<text text-anchor="start" x="491" y="-60.5" font-family="Times,serif" font-size="10.00">ros:pkg</text>
</a>
</g>
<text text-anchor="start" x="579" y="-60.5" font-family="Times,serif" font-size="10.00">metamorphic_testing</text>
<g id="a_node2_2"><a xlink:href="http://wiki.ros.org/relative_path" xlink:title="&lt;TABLE&gt;">
<text text-anchor="start" x="491" y="-47.5" font-family="Times,serif" font-size="10.00">ros:relative_path</text>
</a>
</g>
<text text-anchor="start" x="579" y="-47.5" font-family="Times,serif" font-size="10.00">config/tasks/delivery_a.yaml</text>
</g>
<!-- ann1&#45;&gt;n1 -->
<g id="edge1" class="edge">
<title>ann1&#45;&gt;n1</title>
<path fill="none" stroke="gray" stroke-dasharray="5,2" d="M607,-88.17C607,-99.93 607,-113.87 607,-124.62"/>
</g>
<!-- n2 -->
<g id="node3" class="node">
<title>n2</title>
<g id="a_node3"><a xlink:href="https://www.sesame-project.org/scenarios/tasks/delivery_a.yaml-subtask_001" xlink:title="task:delivery_a.yaml&#45;subtask_001">
<ellipse fill="#fffc87" stroke="#808080" cx="487" cy="-299" rx="167.07" ry="18"/>
<text text-anchor="middle" x="487" y="-295.3" font-family="Times,serif" font-size="14.00">task:delivery_a.yaml&#45;subtask_001</text>
</a>
</g>
</g>
<!-- b2 -->
<g id="node7" class="node">
<title>b2</title>
<ellipse fill="gray" stroke="gray" cx="726" cy="-365.8" rx="1.8" ry="1.8"/>
</g>
<!-- n2&#45;&gt;b2 -->
<g id="edge6" class="edge">
<title>n2&#45;&gt;b2</title>
<path fill="none" stroke="black" d="M535.32,-316.33C564.07,-325.71 601.39,-337.33 635,-346 670.61,-355.19 714.97,-362.92 724.25,-364.5"/>
<text text-anchor="middle" x="679" y="-338" font-family="Times,serif" font-size="10.00">wasDerivedFrom</text>
</g>
<!-- b3 -->
<g id="node10" class="node">
<title>b3</title>
<ellipse fill="gray" stroke="gray" cx="247" cy="-365.8" rx="1.8" ry="1.8"/>
</g>
<!-- n2&#45;&gt;b3 -->
<g id="edge9" class="edge">
<title>n2&#45;&gt;b3</title>
<path fill="none" stroke="black" d="M428.29,-315.85C361.68,-333.84 260.63,-361.12 248.26,-364.46"/>
<text text-anchor="middle" x="396" y="-338" font-family="Times,serif" font-size="10.00">wasDerivedFrom</text>
</g>
<!-- ann2 -->
<g id="node4" class="node">
<title>ann2</title>
<polygon fill="none" stroke="gray" points="599,-244 485,-244 485,-208 605,-208 605,-238 599,-244"/>
<polyline fill="none" stroke="gray" points="599,-244 599,-238 "/>
<polyline fill="none" stroke="gray" points="605,-238 599,-238 "/>
<g id="a_node4_3"><a xlink:href="http://www.w3.org/ns/prov#type" xlink:title="&lt;TABLE&gt;">
<text text-anchor="start" x="495" y="-223" font-family="Times,serif" font-size="10.00">prov:type</text>
</a>
</g>
<text text-anchor="start" x="546" y="-223" font-family="Times,serif" font-size="10.00">prov:Plan</text>
</g>
<!-- ann2&#45;&gt;n2 -->
<g id="edge2" class="edge">
<title>ann2&#45;&gt;n2</title>
<path fill="none" stroke="gray" stroke-dasharray="5,2" d="M530.96,-244.19C521.84,-255.35 510,-269.84 500.91,-280.97"/>
</g>
<!-- b1&#45;&gt;n2 -->
<g id="edge4" class="edge">
<title>b1&#45;&gt;n2</title>
<path fill="none" stroke="black" d="M465.25,-227.8C466.59,-232.12 473.13,-253.23 478.69,-271.18"/>
<polygon fill="black" stroke="black" points="475.42,-272.46 481.72,-280.97 482.11,-270.38 475.42,-272.46"/>
</g>
<!-- ann3 -->
<g id="node6" class="node">
<title>ann3</title>
<polygon fill="none" stroke="gray" points="477,-161 351,-161 351,-125 483,-125 483,-155 477,-161"/>
<polyline fill="none" stroke="gray" points="477,-161 477,-155 "/>
<polyline fill="none" stroke="gray" points="483,-155 477,-155 "/>
<g id="a_node6_4"><a xlink:href="http://www.w3.org/ns/prov#role" xlink:title="&lt;TABLE&gt;">
<text text-anchor="start" x="361" y="-140" font-family="Times,serif" font-size="10.00">prov:role</text>
</a>
</g>
<text text-anchor="start" x="409" y="-140" font-family="Times,serif" font-size="10.00">subtask_001</text>
</g>
<!-- ann3&#45;&gt;b1 -->
<g id="edge5" class="edge">
<title>ann3&#45;&gt;b1</title>
<path fill="none" stroke="gray" stroke-dasharray="5,2" d="M427.18,-161.18C439.95,-182.73 460.64,-217.63 464.4,-223.99"/>
</g>
<!-- n3 -->
<g id="node8" class="node">
<title>n3</title>
<g id="a_node8"><a xlink:href="https://www.sesame-project.org/scenarios/tasks/waypoints/classroom_c022-w001-R0.00_P0.00_Y2.27" xlink:title="pose:classroom_c022&#45;w001&#45;R0.00_P0.00_Y2.27">
<ellipse fill="lightgray" stroke="dimgray" cx="726" cy="-422.6" rx="229.36" ry="18"/>
<text text-anchor="middle" x="726" y="-418.9" font-family="Times,serif" font-size="14.00">pose:classroom_c022&#45;w001&#45;R0.00_P0.00_Y2.27</text>
</a>
</g>
</g>
<!-- b2&#45;&gt;n3 -->
<g id="edge7" class="edge">
<title>b2&#45;&gt;n3</title>
<path fill="none" stroke="black" d="M726,-367.75C726,-371.11 726,-382.87 726,-394.55"/>
<polygon fill="black" stroke="black" points="722.5,-394.58 726,-404.58 729.5,-394.58 722.5,-394.58"/>
</g>
<!-- ann4 -->
<g id="node9" class="node">
<title>ann4</title>
<polygon fill="none" stroke="gray" points="781.5,-317 672.5,-317 672.5,-281 787.5,-281 787.5,-311 781.5,-317"/>
<polyline fill="none" stroke="gray" points="781.5,-317 781.5,-311 "/>
<polyline fill="none" stroke="gray" points="787.5,-311 781.5,-311 "/>
<g id="a_node9_5"><a xlink:href="http://www.w3.org/ns/prov#role" xlink:title="&lt;TABLE&gt;">
<text text-anchor="start" x="683" y="-296" font-family="Times,serif" font-size="10.00">prov:role</text>
</a>
</g>
<text text-anchor="start" x="731" y="-296" font-family="Times,serif" font-size="10.00">waypoint</text>
</g>
<!-- ann4&#45;&gt;b2 -->
<g id="edge8" class="edge">
<title>ann4&#45;&gt;b2</title>
<path fill="none" stroke="gray" stroke-dasharray="5,2" d="M728.95,-317.03C727.91,-333.82 726.43,-357.8 726.08,-363.53"/>
</g>
<!-- n4 -->
<g id="node11" class="node">
<title>n4</title>
<g id="a_node11"><a xlink:href="https://www.sesame-project.org/scenarios/tasks/waypoints/classroom_c018-w001-R0.00_P0.00_Y-0.64" xlink:title="pose:classroom_c018&#45;w001&#45;R0.00_P0.00_Y&#45;0.64">
<ellipse fill="lightgray" stroke="dimgray" cx="247" cy="-422.6" rx="231.26" ry="18"/>
<text text-anchor="middle" x="247" y="-418.9" font-family="Times,serif" font-size="14.00">pose:classroom_c018&#45;w001&#45;R0.00_P0.00_Y&#45;0.64</text>
</a>
</g>
</g>
<!-- b3&#45;&gt;n4 -->
<g id="edge10" class="edge">
<title>b3&#45;&gt;n4</title>
<path fill="none" stroke="black" d="M247,-367.75C247,-371.11 247,-382.87 247,-394.55"/>
<polygon fill="black" stroke="black" points="243.5,-394.58 247,-404.58 250.5,-394.58 243.5,-394.58"/>
</g>
<!-- ann5 -->
<g id="node12" class="node">
<title>ann5</title>
<polygon fill="none" stroke="gray" points="295.5,-317 186.5,-317 186.5,-281 301.5,-281 301.5,-311 295.5,-317"/>
<polyline fill="none" stroke="gray" points="295.5,-317 295.5,-311 "/>
<polyline fill="none" stroke="gray" points="301.5,-311 295.5,-311 "/>
<g id="a_node12_6"><a xlink:href="http://www.w3.org/ns/prov#role" xlink:title="&lt;TABLE&gt;">
<text text-anchor="start" x="197" y="-296" font-family="Times,serif" font-size="10.00">prov:role</text>
</a>
</g>
<text text-anchor="start" x="245" y="-296" font-family="Times,serif" font-size="10.00">waypoint</text>
</g>
<!-- ann5&#45;&gt;b3 -->
<g id="edge11" class="edge">
<title>ann5&#45;&gt;b3</title>
<path fill="none" stroke="gray" stroke-dasharray="5,2" d="M244.79,-317.03C245.57,-333.82 246.68,-357.8 246.94,-363.53"/>
</g>
</g>
</svg>
