<?xml version="1.0" encoding="UTF-8" standalone="no"?>
<!DOCTYPE svg PUBLIC "-//W3C//DTD SVG 1.1//EN"
 "http://www.w3.org/Graphics/SVG/1.1/DTD/svg11.dtd">
<!-- Generated by graphviz version 2.43.0 (0)
 -->
<!-- Title: G Pages: 1 -->
<svg width="573pt" height="465pt"
 viewBox="0.00 0.00 573.00 464.60" xmlns="http://www.w3.org/2000/svg" xmlns:xlink="http://www.w3.org/1999/xlink">
<g id="graph0" class="graph" transform="scale(1 1) rotate(0) translate(4 460.6)">
<title>G</title>
<polygon fill="white" stroke="transparent" points="-4,4 -4,-460.6 569,-460.6 569,4 -4,4"/>
<g id="clust1" class="cluster">
<title>cluster_c1</title>
<g id="a_clust1"><a xlink:href="https://www.sesame-project.org/scenarios/tasks/navigate_home_2.yaml_bundle" xlink:title="task:navigate_home_2.yaml_bundle">
<polygon fill="none" stroke="black" points="8,-8 8,-448.6 557,-448.6 557,-8 8,-8"/>
<text text-anchor="middle" x="282.5" y="-15.8" font-family="Times,serif" font-size="14.00">task:navigate_home_2.yaml_bundle</text>
</a>
</g>
</g>
<!-- n1 -->
<g id="node1" class="node">
<title>n1</title>
<g id="a_node1"><a xlink:href="https://www.sesame-project.org/scenarios/tasks/navigate_home_2.yaml" xlink:title="task:navigate_home_2.yaml">
<ellipse fill="#fffc87" stroke="#808080" cx="323" cy="-143" rx="138.38" ry="18"/>
<text text-anchor="middle" x="323" y="-139.3" font-family="Times,serif" font-size="14.00">task:navigate_home_2.yaml</text>
</a>
</g>
</g>
<!-- b1 -->
<g id="node5" class="node">
<title>b1</title>
<ellipse fill="gray" stroke="gray" cx="283" cy="-226" rx="1.8" ry="1.8"/>
</g>
<!-- n1&#45;&gt;b1 -->
<g id="edge3" class="edge">
<title>n1&#45;&gt;b1</title>
<path fill="none" stroke="black" d="M314.52,-161.18C303.88,-182.73 286.64,-217.63 283.5,-223.99"/>
<text text-anchor="middle" x="349" y="-182" font-family="Times,serif" font-size="10.00">wasDerivedFrom</text>
</g>
<!-- ann1 -->
<g id="node2" class="node">
<title>ann1</title>
<polygon fill="none" stroke="gray" points="461.5,-88 178.5,-88 178.5,-39 467.5,-39 467.5,-82 461.5,-88"/>
<polyline fill="none" stroke="gray" points="461.5,-88 461.5,-82 "/>
<polyline fill="none" stroke="gray" points="467.5,-82 461.5,-82 "/>
<g id="a_node2_0"><a xlink:href="http://www.w3.org/ns/prov#type" xlink:title="&lt;TABLE&gt;">
<text text-anchor="start" x="189" y="-73.5" font-family="Times,serif" font-size="10.00">prov:type</text>
</a>
</g>
<text text-anchor="start" x="277" y="-73.5" font-family="Times,serif" font-size="10.00">prov:Plan</text>
<g id="a_node2_1"><a xlink:href="http://wiki.ros.org/pkg" xlink:title="&lt;TABLE&gt;">
<text text-anchor="start" x="189" y="-60.5" font-family="Times,serif" font-size="10.00">ros:pkg</text>
</a>
</g>
<text text-anchor="start" x="277" y="-60.5" font-family="Times,serif" font-size="10.00">metamorphic_testing</text>
<g id="a_node2_2"><a xlink:href="http://wiki.ros.org/relative_path" xlink:title="&lt;TABLE&gt;">
<text text-anchor="start" x="189" y="-47.5" font-family="Times,serif" font-size="10.00">ros:relative_path</text>
</a>
</g>
<text text-anchor="start" x="277" y="-47.5" font-family="Times,serif" font-size="10.00">config/tasks/navigate_home_2.yaml</text>
</g>
<!-- ann1&#45;&gt;n1 -->
<g id="edge1" class="edge">
<title>ann1&#45;&gt;n1</title>
<path fill="none" stroke="gray" stroke-dasharray="5,2" d="M323,-88.17C323,-99.93 323,-113.87 323,-124.62"/>
</g>
<!-- n2 -->
<g id="node3" class="node">
<title>n2</title>
<g id="a_node3"><a xlink:href="https://www.sesame-project.org/scenarios/tasks/navigate_home_2.yaml-subtask_001" xlink:title="task:navigate_home_2.yaml&#45;subtask_001">
<ellipse fill="#fffc87" stroke="#808080" cx="349" cy="-299" rx="199.56" ry="18"/>
<text text-anchor="middle" x="349" y="-295.3" font-family="Times,serif" font-size="14.00">task:navigate_home_2.yaml&#45;subtask_001</text>
</a>
</g>
</g>
<!-- b2 -->
<g id="node7" class="node">
<title>b2</title>
<ellipse fill="gray" stroke="gray" cx="271" cy="-365.8" rx="1.8" ry="1.8"/>
</g>
<!-- n2&#45;&gt;b2 -->
<g id="edge6" class="edge">
<title>n2&#45;&gt;b2</title>
<path fill="none" stroke="black" d="M328.51,-317.03C307.56,-334.42 277.35,-359.52 271.87,-364.08"/>
<text text-anchor="middle" x="349" y="-338" font-family="Times,serif" font-size="10.00">wasDerivedFrom</text>
</g>
<!-- ann2 -->
<g id="node4" class="node">
<title>ann2</title>
<polygon fill="none" stroke="gray" points="417,-244 303,-244 303,-208 423,-208 423,-238 417,-244"/>
<polyline fill="none" stroke="gray" points="417,-244 417,-238 "/>
<polyline fill="none" stroke="gray" points="423,-238 417,-238 "/>
<g id="a_node4_3"><a xlink:href="http://www.w3.org/ns/prov#type" xlink:title="&lt;TABLE&gt;">
<text text-anchor="start" x="313" y="-223" font-family="Times,serif" font-size="10.00">prov:type</text>
</a>
</g>
<text text-anchor="start" x="364" y="-223" font-family="Times,serif" font-size="10.00">prov:Plan</text>
</g>
<!-- ann2&#45;&gt;n2 -->
<g id="edge2" class="edge">
<title>ann2&#45;&gt;n2</title>
<path fill="none" stroke="gray" stroke-dasharray="5,2" d="M359.61,-244.19C357.41,-255.35 354.55,-269.84 352.36,-280.97"/>
</g>
<!-- b1&#45;&gt;n2 -->
<g id="edge4" class="edge">
<title>b1&#45;&gt;n2</title>
<path fill="none" stroke="black" d="M283.53,-227.97C285,-230.65 289.38,-238.33 294,-244 302.54,-254.47 312.91,-265.09 322.33,-274.1"/>
<polygon fill="black" stroke="black" points="319.94,-276.66 329.62,-280.95 324.73,-271.56 319.94,-276.66"/>
</g>
<!-- ann3 -->
<g id="node6" class="node">
<title>ann3</title>
<polygon fill="none" stroke="gray" points="161,-161 35,-161 35,-125 167,-125 167,-155 161,-161"/>
<polyline fill="none" stroke="gray" points="161,-161 161,-155 "/>
<polyline fill="none" stroke="gray" points="167,-155 161,-155 "/>
<g id="a_node6_4"><a xlink:href="http://www.w3.org/ns/prov#role" xlink:title="&lt;TABLE&gt;">
<text text-anchor="start" x="45" y="-140" font-family="Times,serif" font-size="10.00">prov:role</text>
</a>
</g>
<text text-anchor="start" x="93" y="-140" font-family="Times,serif" font-size="10.00">subtask_001</text>
</g>
<!-- ann3&#45;&gt;b1 -->
<g id="edge5" class="edge">
<title>ann3&#45;&gt;b1</title>
<path fill="none" stroke="gray" stroke-dasharray="5,2" d="M139.6,-161.18C189.27,-183.28 270.53,-219.45 281.71,-224.43"/>
</g>
<!-- n3 -->
<g id="node8" class="node">
<title>n3</title>
<g id="a_node8"><a xlink:href="https://www.sesame-project.org/scenarios/tasks/waypoints/classroom_c025-w002-R0.00_P0.00_Y0.93" xlink:title="pose:classroom_c025&#45;w002&#45;R0.00_P0.00_Y0.93">
<ellipse fill="lightgray" stroke="dimgray" cx="271" cy="-422.6" rx="229.36" ry="18"/>
<text text-anchor="middle" x="271" y="-418.9" font-family="Times,serif" font-size="14.00">pose:classroom_c025&#45;w002&#45;R0.00_P0.00_Y0.93</text>
</a>
</g>
</g>
<!-- b2&#45;&gt;n3 -->
<g id="edge7" class="edge">
<title>b2&#45;&gt;n3</title>
<path fill="none" stroke="black" d="M271,-367.75C271,-371.11 271,-382.87 271,-394.55"/>
<polygon fill="black" stroke="black" points="267.5,-394.58 271,-404.58 274.5,-394.58 267.5,-394.58"/>
</g>
<!-- ann4 -->
<g id="node9" class="node">
<title>ann4</title>
<polygon fill="none" stroke="gray" points="125.5,-317 16.5,-317 16.5,-281 131.5,-281 131.5,-311 125.5,-317"/>
<polyline fill="none" stroke="gray" points="125.5,-317 125.5,-311 "/>
<polyline fill="none" stroke="gray" points="131.5,-311 125.5,-311 "/>
<g id="a_node9_5"><a xlink:href="http://www.w3.org/ns/prov#role" xlink:title="&lt;TABLE&gt;">
<text text-anchor="start" x="27" y="-296" font-family="Times,serif" font-size="10.00">prov:role</text>
</a>
</g>
<text text-anchor="start" x="75" y="-296" font-family="Times,serif" font-size="10.00">waypoint</text>
</g>
<!-- ann4&#45;&gt;b2 -->
<g id="edge8" class="edge">
<title>ann4&#45;&gt;b2</title>
<path fill="none" stroke="gray" stroke-dasharray="5,2" d="M125.76,-317.03C180.02,-334.87 258.92,-360.83 269.75,-364.39"/>
</g>
</g>
</svg>
