<?xml version="1.0" encoding="UTF-8" standalone="no"?>
<!DOCTYPE svg PUBLIC "-//W3C//DTD SVG 1.1//EN"
 "http://www.w3.org/Graphics/SVG/1.1/DTD/svg11.dtd">
<!-- Generated by graphviz version 2.43.0 (0)
 -->
<!-- Title: G Pages: 1 -->
<svg width="1442pt" height="351pt"
 viewBox="0.00 0.00 1442.00 351.00" xmlns="http://www.w3.org/2000/svg" xmlns:xlink="http://www.w3.org/1999/xlink">
<g id="graph0" class="graph" transform="scale(1 1) rotate(0) translate(4 347)">
<title>G</title>
<polygon fill="white" stroke="transparent" points="-4,4 -4,-347 1438,-347 1438,4 -4,4"/>
<g id="clust1" class="cluster">
<title>cluster_c1</title>
<g id="a_clust1"><a xlink:href="https://www.sesame-project.org/scenarios/environments/brsu_building_c_with_doors_bundle" xlink:title="env:brsu_building_c_with_doors_bundle">
<polygon fill="none" stroke="black" points="8,-8 8,-335 1426,-335 1426,-8 8,-8"/>
<text text-anchor="middle" x="717" y="-15.8" font-family="Times,serif" font-size="14.00">env:brsu_building_c_with_doors_bundle</text>
</a>
</g>
</g>
<!-- n1 -->
<g id="node1" class="node">
<title>n1</title>
<g id="a_node1"><a xlink:href="https://www.sesame-project.org/scenarios/environments/brsu_building_c_with_doors" xlink:title="env:brsu_building_c_with_doors">
<ellipse fill="#fffc87" stroke="#808080" cx="580" cy="-136.5" rx="157.87" ry="18"/>
<text text-anchor="middle" x="580" y="-132.8" font-family="Times,serif" font-size="14.00">env:brsu_building_c_with_doors</text>
</a>
</g>
</g>
<!-- n2 -->
<g id="node3" class="node">
<title>n2</title>
<g id="a_node3"><a xlink:href="https://www.sesame-project.org/scenarios/environments/brsu_building_c_with_doors/brsu_building_c_with_doors_map" xlink:title="brsu_building_c_with_doors:brsu_building_c_with_doors_map">
<ellipse fill="#fffc87" stroke="#808080" cx="938" cy="-226" rx="293.55" ry="18"/>
<text text-anchor="middle" x="938" y="-222.3" font-family="Times,serif" font-size="14.00">brsu_building_c_with_doors:brsu_building_c_with_doors_map</text>
</a>
</g>
</g>
<!-- n1&#45;&gt;n2 -->
<g id="edge8" class="edge">
<title>n1&#45;&gt;n2</title>
<path fill="none" stroke="black" d="M643.59,-153.04C704.17,-167.85 795.51,-190.17 860.36,-206.02"/>
<polygon fill="black" stroke="black" points="859.59,-209.44 870.13,-208.41 861.25,-202.64 859.59,-209.44"/>
<text text-anchor="middle" x="823" y="-182" font-family="Times,serif" font-size="10.00">hadMember</text>
</g>
<!-- n5 -->
<g id="node9" class="node">
<title>n5</title>
<g id="a_node9"><a xlink:href="https://www.sesame-project.org/scenarios/environments/brsu_building_c_with_doors/gazebo_world" xlink:title="brsu_building_c_with_doors:gazebo_world">
<ellipse fill="#fffc87" stroke="#808080" cx="221" cy="-226" rx="204.96" ry="18"/>
<text text-anchor="middle" x="221" y="-222.3" font-family="Times,serif" font-size="14.00">brsu_building_c_with_doors:gazebo_world</text>
</a>
</g>
</g>
<!-- n1&#45;&gt;n5 -->
<g id="edge9" class="edge">
<title>n1&#45;&gt;n5</title>
<path fill="none" stroke="black" d="M516.23,-153.04C454.81,-168.01 361.86,-190.67 296.71,-206.55"/>
<polygon fill="black" stroke="black" points="295.79,-203.17 286.91,-208.94 297.45,-209.97 295.79,-203.17"/>
<text text-anchor="middle" x="432" y="-182" font-family="Times,serif" font-size="10.00">hadMember</text>
</g>
<!-- ann1 -->
<g id="node2" class="node">
<title>ann1</title>
<polygon fill="none" stroke="gray" points="658,-75 496,-75 496,-39 664,-39 664,-69 658,-75"/>
<polyline fill="none" stroke="gray" points="658,-75 658,-69 "/>
<polyline fill="none" stroke="gray" points="664,-69 658,-69 "/>
<g id="a_node2_0"><a xlink:href="http://www.w3.org/ns/prov#type" xlink:title="&lt;TABLE&gt;">
<text text-anchor="start" x="506" y="-54" font-family="Times,serif" font-size="10.00">prov:type</text>
</a>
</g>
<text text-anchor="start" x="557" y="-54" font-family="Times,serif" font-size="10.00">exsce:environment</text>
</g>
<!-- ann1&#45;&gt;n1 -->
<g id="edge1" class="edge">
<title>ann1&#45;&gt;n1</title>
<path fill="none" stroke="gray" stroke-dasharray="5,2" d="M580,-75.2C580,-88.04 580,-105.52 580,-118.35"/>
</g>
<!-- n3 -->
<g id="node5" class="node">
<title>n3</title>
<g id="a_node5"><a xlink:href="https://www.sesame-project.org/scenarios/environments/brsu_building_c_with_doors/occupancy_grid" xlink:title="brsu_building_c_with_doors:occupancy_grid">
<ellipse fill="#fffc87" stroke="#808080" cx="1136" cy="-309" rx="213.36" ry="18"/>
<text text-anchor="middle" x="1136" y="-305.3" font-family="Times,serif" font-size="14.00">brsu_building_c_with_doors:occupancy_grid</text>
</a>
</g>
</g>
<!-- n2&#45;&gt;n3 -->
<g id="edge6" class="edge">
<title>n2&#45;&gt;n3</title>
<path fill="none" stroke="black" d="M979.51,-243.98C1010.47,-256.65 1052.92,-274.01 1085.79,-287.46"/>
<polygon fill="black" stroke="black" points="1084.64,-290.77 1095.23,-291.32 1087.3,-284.29 1084.64,-290.77"/>
<text text-anchor="middle" x="1080" y="-265" font-family="Times,serif" font-size="10.00">hadMember</text>
</g>
<!-- n4 -->
<g id="node7" class="node">
<title>n4</title>
<g id="a_node7"><a xlink:href="https://www.sesame-project.org/scenarios/environments/brsu_building_c_with_doors/metadata" xlink:title="brsu_building_c_with_doors:metadata">
<ellipse fill="#fffc87" stroke="#808080" cx="666" cy="-309" rx="185.47" ry="18"/>
<text text-anchor="middle" x="666" y="-305.3" font-family="Times,serif" font-size="14.00">brsu_building_c_with_doors:metadata</text>
</a>
</g>
</g>
<!-- n2&#45;&gt;n4 -->
<g id="edge7" class="edge">
<title>n2&#45;&gt;n4</title>
<path fill="none" stroke="black" d="M881.97,-243.69C837.83,-256.83 776.27,-275.16 730.16,-288.89"/>
<polygon fill="black" stroke="black" points="729.15,-285.54 720.56,-291.75 731.15,-292.25 729.15,-285.54"/>
<text text-anchor="middle" x="850" y="-265" font-family="Times,serif" font-size="10.00">hadMember</text>
</g>
<!-- ann2 -->
<g id="node4" class="node">
<title>ann2</title>
<polygon fill="none" stroke="gray" points="1059,-161 811,-161 811,-112 1065,-112 1065,-155 1059,-161"/>
<polyline fill="none" stroke="gray" points="1059,-161 1059,-155 "/>
<polyline fill="none" stroke="gray" points="1065,-155 1059,-155 "/>
<g id="a_node4_1"><a xlink:href="http://www.w3.org/ns/prov#type" xlink:title="&lt;TABLE&gt;">
<text text-anchor="start" x="821" y="-146.5" font-family="Times,serif" font-size="10.00">prov:type</text>
</a>
</g>
<text text-anchor="start" x="909" y="-146.5" font-family="Times,serif" font-size="10.00">exsce:map</text>
<g id="a_node4_2"><a xlink:href="http://wiki.ros.org/pkg" xlink:title="&lt;TABLE&gt;">
<text text-anchor="start" x="821" y="-133.5" font-family="Times,serif" font-size="10.00">ros:pkg</text>
</a>
</g>
<text text-anchor="start" x="909" y="-133.5" font-family="Times,serif" font-size="10.00">floorplan&#45;DSL&#45;environments</text>
<g id="a_node4_3"><a xlink:href="http://wiki.ros.org/relative_path" xlink:title="&lt;TABLE&gt;">
<text text-anchor="start" x="821" y="-120.5" font-family="Times,serif" font-size="10.00">ros:relative_path</text>
</a>
</g>
<text text-anchor="start" x="909" y="-120.5" font-family="Times,serif" font-size="10.00">maps/</text>
</g>
<!-- ann2&#45;&gt;n2 -->
<g id="edge2" class="edge">
<title>ann2&#45;&gt;n2</title>
<path fill="none" stroke="gray" stroke-dasharray="5,2" d="M938,-161.41C938,-176.08 938,-194.54 938,-207.78"/>
</g>
<!-- ann3 -->
<g id="node6" class="node">
<title>ann3</title>
<polygon fill="none" stroke="gray" points="1412.5,-244 1249.5,-244 1249.5,-208 1418.5,-208 1418.5,-238 1412.5,-244"/>
<polyline fill="none" stroke="gray" points="1412.5,-244 1412.5,-238 "/>
<polyline fill="none" stroke="gray" points="1418.5,-238 1412.5,-238 "/>
<g id="a_node6_4"><a xlink:href="http://www.w3.org/ns/prov#type" xlink:title="&lt;TABLE&gt;">
<text text-anchor="start" x="1260" y="-223" font-family="Times,serif" font-size="10.00">prov:type</text>
</a>
</g>
<text text-anchor="start" x="1311" y="-223" font-family="Times,serif" font-size="10.00">ros:OccupancyGrid</text>
</g>
<!-- ann3&#45;&gt;n3 -->
<g id="edge3" class="edge">
<title>ann3&#45;&gt;n3</title>
<path fill="none" stroke="gray" stroke-dasharray="5,2" d="M1292.01,-244.18C1258.07,-258.06 1210.56,-277.5 1176.91,-291.26"/>
</g>
<!-- ann4 -->
<g id="node8" class="node">
<title>ann4</title>
<polygon fill="none" stroke="gray" points="620.5,-244 443.5,-244 443.5,-208 626.5,-208 626.5,-238 620.5,-244"/>
<polyline fill="none" stroke="gray" points="620.5,-244 620.5,-238 "/>
<polyline fill="none" stroke="gray" points="626.5,-238 620.5,-238 "/>
<g id="a_node8_5"><a xlink:href="http://www.w3.org/ns/prov#type" xlink:title="&lt;TABLE&gt;">
<text text-anchor="start" x="454" y="-223" font-family="Times,serif" font-size="10.00">prov:type</text>
</a>
</g>
<g id="a_node8_6"><a xlink:href="http://wiki.ros.org/Parameter_Server" xlink:title="&lt;TABLE&gt;">
<text text-anchor="start" x="505" y="-223" font-family="Times,serif" font-size="10.00">ros:Parameter_Server</text>
</a>
</g>
</g>
<!-- ann4&#45;&gt;n4 -->
<g id="edge4" class="edge">
<title>ann4&#45;&gt;n4</title>
<path fill="none" stroke="gray" stroke-dasharray="5,2" d="M562.78,-244.18C585.16,-258.02 616.46,-277.37 638.71,-291.12"/>
</g>
<!-- ann5 -->
<g id="node10" class="node">
<title>ann5</title>
<polygon fill="none" stroke="gray" points="342,-161 94,-161 94,-112 348,-112 348,-155 342,-161"/>
<polyline fill="none" stroke="gray" points="342,-161 342,-155 "/>
<polyline fill="none" stroke="gray" points="348,-155 342,-155 "/>
<g id="a_node10_7"><a xlink:href="http://www.w3.org/ns/prov#type" xlink:title="&lt;TABLE&gt;">
<text text-anchor="start" x="104" y="-146.5" font-family="Times,serif" font-size="10.00">prov:type</text>
</a>
</g>
<g id="a_node10_8"><a xlink:href="http://wiki.ros.org/GazeboModel" xlink:title="&lt;TABLE&gt;">
<text text-anchor="start" x="192" y="-146.5" font-family="Times,serif" font-size="10.00">ros:GazeboModel</text>
</a>
</g>
<g id="a_node10_9"><a xlink:href="http://wiki.ros.org/pkg" xlink:title="&lt;TABLE&gt;">
<text text-anchor="start" x="104" y="-133.5" font-family="Times,serif" font-size="10.00">ros:pkg</text>
</a>
</g>
<text text-anchor="start" x="192" y="-133.5" font-family="Times,serif" font-size="10.00">floorplan&#45;DSL&#45;environments</text>
<g id="a_node10_10"><a xlink:href="http://wiki.ros.org/relative_path" xlink:title="&lt;TABLE&gt;">
<text text-anchor="start" x="104" y="-120.5" font-family="Times,serif" font-size="10.00">ros:relative_path</text>
</a>
</g>
<text text-anchor="start" x="192" y="-120.5" font-family="Times,serif" font-size="10.00">worlds/</text>
</g>
<!-- ann5&#45;&gt;n5 -->
<g id="edge5" class="edge">
<title>ann5&#45;&gt;n5</title>
<path fill="none" stroke="gray" stroke-dasharray="5,2" d="M221,-161.41C221,-176.08 221,-194.54 221,-207.78"/>
</g>
</g>
</svg>
