<?xml version="1.0" encoding="UTF-8" standalone="no"?>
<!DOCTYPE svg PUBLIC "-//W3C//DTD SVG 1.1//EN"
 "http://www.w3.org/Graphics/SVG/1.1/DTD/svg11.dtd">
<!-- Generated by graphviz version 2.43.0 (0)
 -->
<!-- Title: G Pages: 1 -->
<svg width="1558pt" height="294pt"
 viewBox="0.00 0.00 1558.00 294.00" xmlns="http://www.w3.org/2000/svg" xmlns:xlink="http://www.w3.org/1999/xlink">
<g id="graph0" class="graph" transform="scale(1 1) rotate(0) translate(4 290)">
<title>G</title>
<polygon fill="white" stroke="transparent" points="-4,4 -4,-290 1554,-290 1554,4 -4,4"/>
<g id="clust1" class="cluster">
<title>cluster_c1</title>
<g id="a_clust1"><a xlink:href="https://www.sesame-project.org/scenarios/environments/classroom_c022_bundle" xlink:title="env:classroom_c022_bundle">
<polygon fill="none" stroke="black" points="8,-8 8,-278 1542,-278 1542,-8 8,-8"/>
<text text-anchor="middle" x="775" y="-15.8" font-family="Times,serif" font-size="14.00">env:classroom_c022_bundle</text>
</a>
</g>
</g>
<!-- n1 -->
<g id="node1" class="node">
<title>n1</title>
<g id="a_node1"><a xlink:href="https://www.sesame-project.org/scenarios/tasks/waypoints/classroom_c022-w001-R0.00_P0.00_Y2.27" xlink:title="pose:classroom_c022&#45;w001&#45;R0.00_P0.00_Y2.27">
<ellipse fill="#fffc87" stroke="#808080" cx="1110" cy="-149.5" rx="229.36" ry="18"/>
<text text-anchor="middle" x="1110" y="-145.8" font-family="Times,serif" font-size="14.00">pose:classroom_c022&#45;w001&#45;R0.00_P0.00_Y2.27</text>
</a>
</g>
</g>
<!-- n2 -->
<g id="node3" class="node">
<title>n2</title>
<g id="a_node3"><a xlink:href="https://www.sesame-project.org/scenarios/tasks/points/classroom_c022-w001" xlink:title="point:classroom_c022&#45;w001">
<ellipse fill="#fffc87" stroke="#808080" cx="1278" cy="-252" rx="139.98" ry="18"/>
<text text-anchor="middle" x="1278" y="-248.3" font-family="Times,serif" font-size="14.00">point:classroom_c022&#45;w001</text>
</a>
</g>
</g>
<!-- n1&#45;&gt;n2 -->
<g id="edge6" class="edge">
<title>n1&#45;&gt;n2</title>
<path fill="none" stroke="black" d="M1138.5,-167.55C1166.79,-184.47 1210.27,-210.49 1241.17,-228.97"/>
<polygon fill="black" stroke="black" points="1239.54,-232.07 1249.92,-234.2 1243.14,-226.07 1239.54,-232.07"/>
<text text-anchor="middle" x="1250" y="-208" font-family="Times,serif" font-size="10.00">hadMember</text>
</g>
<!-- n3 -->
<g id="node5" class="node">
<title>n3</title>
<g id="a_node5"><a xlink:href="https://www.sesame-project.org/scenarios/tasks/orientation/R0.00_P0.00_Y2.27" xlink:title="orientation:R0.00_P0.00_Y2.27">
<ellipse fill="#fffc87" stroke="#808080" cx="775" cy="-252" rx="154.07" ry="18"/>
<text text-anchor="middle" x="775" y="-248.3" font-family="Times,serif" font-size="14.00">orientation:R0.00_P0.00_Y2.27</text>
</a>
</g>
</g>
<!-- n1&#45;&gt;n3 -->
<g id="edge7" class="edge">
<title>n1&#45;&gt;n3</title>
<path fill="none" stroke="black" d="M1055.06,-166.98C995.41,-184.88 900.34,-213.4 837.79,-232.16"/>
<polygon fill="black" stroke="black" points="836.61,-228.86 828.04,-235.09 838.62,-235.57 836.61,-228.86"/>
<text text-anchor="middle" x="954" y="-208" font-family="Times,serif" font-size="10.00">hadMember</text>
</g>
<!-- ann1 -->
<g id="node2" class="node">
<title>ann1</title>
<polygon fill="none" stroke="gray" points="1167.5,-75 1046.5,-75 1046.5,-39 1173.5,-39 1173.5,-69 1167.5,-75"/>
<polyline fill="none" stroke="gray" points="1167.5,-75 1167.5,-69 "/>
<polyline fill="none" stroke="gray" points="1173.5,-69 1167.5,-69 "/>
<g id="a_node2_0"><a xlink:href="http://www.w3.org/ns/prov#type" xlink:title="&lt;TABLE&gt;">
<text text-anchor="start" x="1057" y="-54" font-family="Times,serif" font-size="10.00">prov:type</text>
</a>
</g>
<text text-anchor="start" x="1108" y="-54" font-family="Times,serif" font-size="10.00">geom:Pose</text>
</g>
<!-- ann1&#45;&gt;n1 -->
<g id="edge1" class="edge">
<title>ann1&#45;&gt;n1</title>
<path fill="none" stroke="gray" stroke-dasharray="5,2" d="M1110,-75.02C1110,-91.1 1110,-115.09 1110,-131.25"/>
</g>
<!-- ann2 -->
<g id="node4" class="node">
<title>ann2</title>
<polygon fill="none" stroke="gray" points="1528.5,-180.5 1357.5,-180.5 1357.5,-118.5 1534.5,-118.5 1534.5,-174.5 1528.5,-180.5"/>
<polyline fill="none" stroke="gray" points="1528.5,-180.5 1528.5,-174.5 "/>
<polyline fill="none" stroke="gray" points="1534.5,-174.5 1528.5,-174.5 "/>
<g id="a_node4_1"><a xlink:href="http://www.w3.org/ns/prov#type" xlink:title="&lt;TABLE&gt;">
<text text-anchor="start" x="1368" y="-166.5" font-family="Times,serif" font-size="10.00">prov:type</text>
</a>
</g>
<text text-anchor="start" x="1419" y="-166.5" font-family="Times,serif" font-size="10.00">geom:Point</text>
<g id="a_node4_2"><a xlink:href="https://robot-schema.org/coordinates/x" xlink:title="&lt;TABLE&gt;">
<text text-anchor="start" x="1368" y="-153.5" font-family="Times,serif" font-size="10.00">coord:x</text>
</a>
</g>
<text text-anchor="start" x="1419" y="-153.5" font-family="Times,serif" font-size="10.00">52.82560729980469</text>
<g id="a_node4_3"><a xlink:href="https://robot-schema.org/coordinates/y" xlink:title="&lt;TABLE&gt;">
<text text-anchor="start" x="1368" y="-140.5" font-family="Times,serif" font-size="10.00">coord:y</text>
</a>
</g>
<text text-anchor="start" x="1419" y="-140.5" font-family="Times,serif" font-size="10.00">32.562904357910156</text>
<g id="a_node4_4"><a xlink:href="https://robot-schema.org/coordinates/z" xlink:title="&lt;TABLE&gt;">
<text text-anchor="start" x="1368" y="-127.5" font-family="Times,serif" font-size="10.00">coord:z</text>
</a>
</g>
<text text-anchor="start" x="1419" y="-127.5" font-family="Times,serif" font-size="10.00">0.0</text>
</g>
<!-- ann2&#45;&gt;n2 -->
<g id="edge2" class="edge">
<title>ann2&#45;&gt;n2</title>
<path fill="none" stroke="gray" stroke-dasharray="5,2" d="M1395.59,-180.65C1366.21,-198.23 1330.26,-219.73 1305.91,-234.31"/>
</g>
<!-- ann3 -->
<g id="node6" class="node">
<title>ann3</title>
<polygon fill="none" stroke="gray" points="856.5,-187 687.5,-187 687.5,-112 862.5,-112 862.5,-181 856.5,-187"/>
<polyline fill="none" stroke="gray" points="856.5,-187 856.5,-181 "/>
<polyline fill="none" stroke="gray" points="862.5,-181 856.5,-181 "/>
<g id="a_node6_5"><a xlink:href="http://www.w3.org/ns/prov#type" xlink:title="&lt;TABLE&gt;">
<text text-anchor="start" x="698" y="-172.5" font-family="Times,serif" font-size="10.00">prov:type</text>
</a>
</g>
<text text-anchor="start" x="758" y="-172.5" font-family="Times,serif" font-size="10.00">geom:EulerAngles</text>
<g id="a_node6_6"><a xlink:href="https://robot-schema.org/rotation/pitch" xlink:title="&lt;TABLE&gt;">
<text text-anchor="start" x="698" y="-159.5" font-family="Times,serif" font-size="10.00">angle:pitch</text>
</a>
</g>
<text text-anchor="start" x="758" y="-159.5" font-family="Times,serif" font-size="10.00">0.0</text>
<g id="a_node6_7"><a xlink:href="https://robot-schema.org/rotation/roll" xlink:title="&lt;TABLE&gt;">
<text text-anchor="start" x="698" y="-146.5" font-family="Times,serif" font-size="10.00">angle:roll</text>
</a>
</g>
<text text-anchor="start" x="758" y="-146.5" font-family="Times,serif" font-size="10.00">0.0</text>
<g id="a_node6_8"><a xlink:href="https://robot-schema.org/rotation/yaw" xlink:title="&lt;TABLE&gt;">
<text text-anchor="start" x="698" y="-133.5" font-family="Times,serif" font-size="10.00">angle:yaw</text>
</a>
</g>
<text text-anchor="start" x="758" y="-133.5" font-family="Times,serif" font-size="10.00">2.269</text>
<g id="a_node6_9"><a xlink:href="https://robot-schema.org/axes" xlink:title="&lt;TABLE&gt;">
<text text-anchor="start" x="698" y="-120.5" font-family="Times,serif" font-size="10.00">geom:axes</text>
</a>
</g>
<text text-anchor="start" x="758" y="-120.5" font-family="Times,serif" font-size="10.00">sxyz</text>
</g>
<!-- ann3&#45;&gt;n3 -->
<g id="edge3" class="edge">
<title>ann3&#45;&gt;n3</title>
<path fill="none" stroke="gray" stroke-dasharray="5,2" d="M775,-187.07C775,-203.01 775,-220.93 775,-233.74"/>
</g>
<!-- n4 -->
<g id="node7" class="node">
<title>n4</title>
<g id="a_node7"><a xlink:href="https://www.sesame-project.org/scenarios/tasks/waypoints/classroom_c022-w002-R0.00_P0.00_Y2.27" xlink:title="pose:classroom_c022&#45;w002&#45;R0.00_P0.00_Y2.27">
<ellipse fill="#fffc87" stroke="#808080" cx="440" cy="-149.5" rx="229.36" ry="18"/>
<text text-anchor="middle" x="440" y="-145.8" font-family="Times,serif" font-size="14.00">pose:classroom_c022&#45;w002&#45;R0.00_P0.00_Y2.27</text>
</a>
</g>
</g>
<!-- n4&#45;&gt;n3 -->
<g id="edge9" class="edge">
<title>n4&#45;&gt;n3</title>
<path fill="none" stroke="black" d="M494.94,-166.98C554.59,-184.88 649.66,-213.4 712.21,-232.16"/>
<polygon fill="black" stroke="black" points="711.38,-235.57 721.96,-235.09 713.39,-228.86 711.38,-235.57"/>
<text text-anchor="middle" x="689" y="-208" font-family="Times,serif" font-size="10.00">hadMember</text>
</g>
<!-- n5 -->
<g id="node9" class="node">
<title>n5</title>
<g id="a_node9"><a xlink:href="https://www.sesame-project.org/scenarios/tasks/points/classroom_c022-w002" xlink:title="point:classroom_c022&#45;w002">
<ellipse fill="#fffc87" stroke="#808080" cx="298" cy="-252" rx="139.98" ry="18"/>
<text text-anchor="middle" x="298" y="-248.3" font-family="Times,serif" font-size="14.00">point:classroom_c022&#45;w002</text>
</a>
</g>
</g>
<!-- n4&#45;&gt;n5 -->
<g id="edge8" class="edge">
<title>n4&#45;&gt;n5</title>
<path fill="none" stroke="black" d="M415.91,-167.55C392.31,-184.25 356.19,-209.82 330.15,-228.25"/>
<polygon fill="black" stroke="black" points="327.87,-225.57 321.73,-234.2 331.92,-231.28 327.87,-225.57"/>
<text text-anchor="middle" x="392" y="-208" font-family="Times,serif" font-size="10.00">hadMember</text>
</g>
<!-- ann4 -->
<g id="node8" class="node">
<title>ann4</title>
<polygon fill="none" stroke="gray" points="497.5,-75 376.5,-75 376.5,-39 503.5,-39 503.5,-69 497.5,-75"/>
<polyline fill="none" stroke="gray" points="497.5,-75 497.5,-69 "/>
<polyline fill="none" stroke="gray" points="503.5,-69 497.5,-69 "/>
<g id="a_node8_10"><a xlink:href="http://www.w3.org/ns/prov#type" xlink:title="&lt;TABLE&gt;">
<text text-anchor="start" x="387" y="-54" font-family="Times,serif" font-size="10.00">prov:type</text>
</a>
</g>
<text text-anchor="start" x="438" y="-54" font-family="Times,serif" font-size="10.00">geom:Pose</text>
</g>
<!-- ann4&#45;&gt;n4 -->
<g id="edge4" class="edge">
<title>ann4&#45;&gt;n4</title>
<path fill="none" stroke="gray" stroke-dasharray="5,2" d="M440,-75.02C440,-91.1 440,-115.09 440,-131.25"/>
</g>
<!-- ann5 -->
<g id="node10" class="node">
<title>ann5</title>
<polygon fill="none" stroke="gray" points="186.5,-180.5 15.5,-180.5 15.5,-118.5 192.5,-118.5 192.5,-174.5 186.5,-180.5"/>
<polyline fill="none" stroke="gray" points="186.5,-180.5 186.5,-174.5 "/>
<polyline fill="none" stroke="gray" points="192.5,-174.5 186.5,-174.5 "/>
<g id="a_node10_11"><a xlink:href="http://www.w3.org/ns/prov#type" xlink:title="&lt;TABLE&gt;">
<text text-anchor="start" x="26" y="-166.5" font-family="Times,serif" font-size="10.00">prov:type</text>
</a>
</g>
<text text-anchor="start" x="77" y="-166.5" font-family="Times,serif" font-size="10.00">geom:Point</text>
<g id="a_node10_12"><a xlink:href="https://robot-schema.org/coordinates/x" xlink:title="&lt;TABLE&gt;">
<text text-anchor="start" x="26" y="-153.5" font-family="Times,serif" font-size="10.00">coord:x</text>
</a>
</g>
<text text-anchor="start" x="77" y="-153.5" font-family="Times,serif" font-size="10.00">54.497589111328125</text>
<g id="a_node10_13"><a xlink:href="https://robot-schema.org/coordinates/y" xlink:title="&lt;TABLE&gt;">
<text text-anchor="start" x="26" y="-140.5" font-family="Times,serif" font-size="10.00">coord:y</text>
</a>
</g>
<text text-anchor="start" x="77" y="-140.5" font-family="Times,serif" font-size="10.00">31.52023696899414</text>
<g id="a_node10_14"><a xlink:href="https://robot-schema.org/coordinates/z" xlink:title="&lt;TABLE&gt;">
<text text-anchor="start" x="26" y="-127.5" font-family="Times,serif" font-size="10.00">coord:z</text>
</a>
</g>
<text text-anchor="start" x="77" y="-127.5" font-family="Times,serif" font-size="10.00">0.0</text>
</g>
<!-- ann5&#45;&gt;n5 -->
<g id="edge5" class="edge">
<title>ann5&#45;&gt;n5</title>
<path fill="none" stroke="gray" stroke-dasharray="5,2" d="M161.94,-180.52C196,-198.16 237.76,-219.79 265.96,-234.4"/>
</g>
</g>
</svg>
