<?xml version="1.0" encoding="UTF-8" standalone="no"?>
<!DOCTYPE svg PUBLIC "-//W3C//DTD SVG 1.1//EN"
 "http://www.w3.org/Graphics/SVG/1.1/DTD/svg11.dtd">
<!-- Generated by graphviz version 2.43.0 (0)
 -->
<!-- Title: G Pages: 1 -->
<svg width="2701pt" height="294pt"
 viewBox="0.00 0.00 2701.00 294.00" xmlns="http://www.w3.org/2000/svg" xmlns:xlink="http://www.w3.org/1999/xlink">
<g id="graph0" class="graph" transform="scale(1 1) rotate(0) translate(4 290)">
<title>G</title>
<polygon fill="white" stroke="transparent" points="-4,4 -4,-290 2697,-290 2697,4 -4,4"/>
<g id="clust1" class="cluster">
<title>cluster_c1</title>
<g id="a_clust1"><a xlink:href="https://www.sesame-project.org/scenarios/environments/classroom_c025_bundle" xlink:title="env:classroom_c025_bundle">
<polygon fill="none" stroke="black" points="8,-8 8,-278 2685,-278 2685,-8 8,-8"/>
<text text-anchor="middle" x="1346.5" y="-15.8" font-family="Times,serif" font-size="14.00">env:classroom_c025_bundle</text>
</a>
</g>
</g>
<!-- n1 -->
<g id="node1" class="node">
<title>n1</title>
<g id="a_node1"><a xlink:href="https://www.sesame-project.org/scenarios/tasks/waypoints/classroom_c025-w001-R0.00_P0.00_Y0.00" xlink:title="pose:classroom_c025&#45;w001&#45;R0.00_P0.00_Y0.00">
<ellipse fill="#fffc87" stroke="#808080" cx="2258" cy="-149.5" rx="229.36" ry="18"/>
<text text-anchor="middle" x="2258" y="-145.8" font-family="Times,serif" font-size="14.00">pose:classroom_c025&#45;w001&#45;R0.00_P0.00_Y0.00</text>
</a>
</g>
</g>
<!-- n2 -->
<g id="node3" class="node">
<title>n2</title>
<g id="a_node3"><a xlink:href="https://www.sesame-project.org/scenarios/tasks/points/classroom_c025-w001" xlink:title="point:classroom_c025&#45;w001">
<ellipse fill="#fffc87" stroke="#808080" cx="2258" cy="-252" rx="139.98" ry="18"/>
<text text-anchor="middle" x="2258" y="-248.3" font-family="Times,serif" font-size="14.00">point:classroom_c025&#45;w001</text>
</a>
</g>
</g>
<!-- n1&#45;&gt;n2 -->
<g id="edge9" class="edge">
<title>n1&#45;&gt;n2</title>
<path fill="none" stroke="black" d="M2258,-167.55C2258,-182.92 2258,-205.81 2258,-223.73"/>
<polygon fill="black" stroke="black" points="2254.5,-223.87 2258,-233.87 2261.5,-223.87 2254.5,-223.87"/>
<text text-anchor="middle" x="2290" y="-208" font-family="Times,serif" font-size="10.00">hadMember</text>
</g>
<!-- n3 -->
<g id="node5" class="node">
<title>n3</title>
<g id="a_node5"><a xlink:href="https://www.sesame-project.org/scenarios/tasks/orientation/R0.00_P0.00_Y0.00" xlink:title="orientation:R0.00_P0.00_Y0.00">
<ellipse fill="#fffc87" stroke="#808080" cx="1923" cy="-252" rx="154.07" ry="18"/>
<text text-anchor="middle" x="1923" y="-248.3" font-family="Times,serif" font-size="14.00">orientation:R0.00_P0.00_Y0.00</text>
</a>
</g>
</g>
<!-- n1&#45;&gt;n3 -->
<g id="edge10" class="edge">
<title>n1&#45;&gt;n3</title>
<path fill="none" stroke="black" d="M2206.87,-167.17C2164.86,-180.73 2103.74,-200.14 2050,-216 2031.04,-221.6 2010.41,-227.4 1991.39,-232.64"/>
<polygon fill="black" stroke="black" points="1990.33,-229.3 1981.61,-235.32 1992.18,-236.05 1990.33,-229.3"/>
<text text-anchor="middle" x="2116" y="-208" font-family="Times,serif" font-size="10.00">hadMember</text>
</g>
<!-- ann1 -->
<g id="node2" class="node">
<title>ann1</title>
<polygon fill="none" stroke="gray" points="2315.5,-75 2194.5,-75 2194.5,-39 2321.5,-39 2321.5,-69 2315.5,-75"/>
<polyline fill="none" stroke="gray" points="2315.5,-75 2315.5,-69 "/>
<polyline fill="none" stroke="gray" points="2321.5,-69 2315.5,-69 "/>
<g id="a_node2_0"><a xlink:href="http://www.w3.org/ns/prov#type" xlink:title="&lt;TABLE&gt;">
<text text-anchor="start" x="2205" y="-54" font-family="Times,serif" font-size="10.00">prov:type</text>
</a>
</g>
<text text-anchor="start" x="2256" y="-54" font-family="Times,serif" font-size="10.00">geom:Pose</text>
</g>
<!-- ann1&#45;&gt;n1 -->
<g id="edge1" class="edge">
<title>ann1&#45;&gt;n1</title>
<path fill="none" stroke="gray" stroke-dasharray="5,2" d="M2258,-75.02C2258,-91.1 2258,-115.09 2258,-131.25"/>
</g>
<!-- ann2 -->
<g id="node4" class="node">
<title>ann2</title>
<polygon fill="none" stroke="gray" points="2670.5,-180.5 2505.5,-180.5 2505.5,-118.5 2676.5,-118.5 2676.5,-174.5 2670.5,-180.5"/>
<polyline fill="none" stroke="gray" points="2670.5,-180.5 2670.5,-174.5 "/>
<polyline fill="none" stroke="gray" points="2676.5,-174.5 2670.5,-174.5 "/>
<g id="a_node4_1"><a xlink:href="http://www.w3.org/ns/prov#type" xlink:title="&lt;TABLE&gt;">
<text text-anchor="start" x="2516" y="-166.5" font-family="Times,serif" font-size="10.00">prov:type</text>
</a>
</g>
<text text-anchor="start" x="2567" y="-166.5" font-family="Times,serif" font-size="10.00">geom:Point</text>
<g id="a_node4_2"><a xlink:href="https://robot-schema.org/coordinates/x" xlink:title="&lt;TABLE&gt;">
<text text-anchor="start" x="2516" y="-153.5" font-family="Times,serif" font-size="10.00">coord:x</text>
</a>
</g>
<text text-anchor="start" x="2567" y="-153.5" font-family="Times,serif" font-size="10.00">44.80387496948242</text>
<g id="a_node4_3"><a xlink:href="https://robot-schema.org/coordinates/y" xlink:title="&lt;TABLE&gt;">
<text text-anchor="start" x="2516" y="-140.5" font-family="Times,serif" font-size="10.00">coord:y</text>
</a>
</g>
<text text-anchor="start" x="2567" y="-140.5" font-family="Times,serif" font-size="10.00">37.15502166748047</text>
<g id="a_node4_4"><a xlink:href="https://robot-schema.org/coordinates/z" xlink:title="&lt;TABLE&gt;">
<text text-anchor="start" x="2516" y="-127.5" font-family="Times,serif" font-size="10.00">coord:z</text>
</a>
</g>
<text text-anchor="start" x="2567" y="-127.5" font-family="Times,serif" font-size="10.00">0.0</text>
</g>
<!-- ann2&#45;&gt;n2 -->
<g id="edge2" class="edge">
<title>ann2&#45;&gt;n2</title>
<path fill="none" stroke="gray" stroke-dasharray="5,2" d="M2514.77,-180.58C2508.45,-182.83 2502.13,-185 2496,-187 2437.41,-206.07 2369.43,-223.94 2321.16,-235.92"/>
</g>
<!-- ann3 -->
<g id="node6" class="node">
<title>ann3</title>
<polygon fill="none" stroke="gray" points="2004.5,-187 1835.5,-187 1835.5,-112 2010.5,-112 2010.5,-181 2004.5,-187"/>
<polyline fill="none" stroke="gray" points="2004.5,-187 2004.5,-181 "/>
<polyline fill="none" stroke="gray" points="2010.5,-181 2004.5,-181 "/>
<g id="a_node6_5"><a xlink:href="http://www.w3.org/ns/prov#type" xlink:title="&lt;TABLE&gt;">
<text text-anchor="start" x="1846" y="-172.5" font-family="Times,serif" font-size="10.00">prov:type</text>
</a>
</g>
<text text-anchor="start" x="1906" y="-172.5" font-family="Times,serif" font-size="10.00">geom:EulerAngles</text>
<g id="a_node6_6"><a xlink:href="https://robot-schema.org/rotation/pitch" xlink:title="&lt;TABLE&gt;">
<text text-anchor="start" x="1846" y="-159.5" font-family="Times,serif" font-size="10.00">angle:pitch</text>
</a>
</g>
<text text-anchor="start" x="1906" y="-159.5" font-family="Times,serif" font-size="10.00">0.0</text>
<g id="a_node6_7"><a xlink:href="https://robot-schema.org/rotation/roll" xlink:title="&lt;TABLE&gt;">
<text text-anchor="start" x="1846" y="-146.5" font-family="Times,serif" font-size="10.00">angle:roll</text>
</a>
</g>
<text text-anchor="start" x="1906" y="-146.5" font-family="Times,serif" font-size="10.00">0.0</text>
<g id="a_node6_8"><a xlink:href="https://robot-schema.org/rotation/yaw" xlink:title="&lt;TABLE&gt;">
<text text-anchor="start" x="1846" y="-133.5" font-family="Times,serif" font-size="10.00">angle:yaw</text>
</a>
</g>
<text text-anchor="start" x="1906" y="-133.5" font-family="Times,serif" font-size="10.00">0.0</text>
<g id="a_node6_9"><a xlink:href="https://robot-schema.org/axes" xlink:title="&lt;TABLE&gt;">
<text text-anchor="start" x="1846" y="-120.5" font-family="Times,serif" font-size="10.00">geom:axes</text>
</a>
</g>
<text text-anchor="start" x="1906" y="-120.5" font-family="Times,serif" font-size="10.00">sxyz</text>
</g>
<!-- ann3&#45;&gt;n3 -->
<g id="edge3" class="edge">
<title>ann3&#45;&gt;n3</title>
<path fill="none" stroke="gray" stroke-dasharray="5,2" d="M1923,-187.07C1923,-203.01 1923,-220.93 1923,-233.74"/>
</g>
<!-- n4 -->
<g id="node7" class="node">
<title>n4</title>
<g id="a_node7"><a xlink:href="https://www.sesame-project.org/scenarios/tasks/waypoints/classroom_c025-w002-R0.00_P0.00_Y0.00" xlink:title="pose:classroom_c025&#45;w002&#45;R0.00_P0.00_Y0.00">
<ellipse fill="#fffc87" stroke="#808080" cx="1588" cy="-149.5" rx="229.36" ry="18"/>
<text text-anchor="middle" x="1588" y="-145.8" font-family="Times,serif" font-size="14.00">pose:classroom_c025&#45;w002&#45;R0.00_P0.00_Y0.00</text>
</a>
</g>
</g>
<!-- n4&#45;&gt;n3 -->
<g id="edge12" class="edge">
<title>n4&#45;&gt;n3</title>
<path fill="none" stroke="black" d="M1642.94,-166.98C1702.59,-184.88 1797.66,-213.4 1860.21,-232.16"/>
<polygon fill="black" stroke="black" points="1859.38,-235.57 1869.96,-235.09 1861.39,-228.86 1859.38,-235.57"/>
<text text-anchor="middle" x="1837" y="-208" font-family="Times,serif" font-size="10.00">hadMember</text>
</g>
<!-- n5 -->
<g id="node9" class="node">
<title>n5</title>
<g id="a_node9"><a xlink:href="https://www.sesame-project.org/scenarios/tasks/points/classroom_c025-w002" xlink:title="point:classroom_c025&#45;w002">
<ellipse fill="#fffc87" stroke="#808080" cx="1252" cy="-252" rx="139.98" ry="18"/>
<text text-anchor="middle" x="1252" y="-248.3" font-family="Times,serif" font-size="14.00">point:classroom_c025&#45;w002</text>
</a>
</g>
</g>
<!-- n4&#45;&gt;n5 -->
<g id="edge11" class="edge">
<title>n4&#45;&gt;n5</title>
<path fill="none" stroke="black" d="M1532.89,-166.98C1472.9,-184.93 1377.15,-213.57 1314.42,-232.33"/>
<polygon fill="black" stroke="black" points="1313.22,-229.03 1304.64,-235.25 1315.23,-235.74 1313.22,-229.03"/>
<text text-anchor="middle" x="1431" y="-208" font-family="Times,serif" font-size="10.00">hadMember</text>
</g>
<!-- ann4 -->
<g id="node8" class="node">
<title>ann4</title>
<polygon fill="none" stroke="gray" points="1645.5,-75 1524.5,-75 1524.5,-39 1651.5,-39 1651.5,-69 1645.5,-75"/>
<polyline fill="none" stroke="gray" points="1645.5,-75 1645.5,-69 "/>
<polyline fill="none" stroke="gray" points="1651.5,-69 1645.5,-69 "/>
<g id="a_node8_10"><a xlink:href="http://www.w3.org/ns/prov#type" xlink:title="&lt;TABLE&gt;">
<text text-anchor="start" x="1535" y="-54" font-family="Times,serif" font-size="10.00">prov:type</text>
</a>
</g>
<text text-anchor="start" x="1586" y="-54" font-family="Times,serif" font-size="10.00">geom:Pose</text>
</g>
<!-- ann4&#45;&gt;n4 -->
<g id="edge4" class="edge">
<title>ann4&#45;&gt;n4</title>
<path fill="none" stroke="gray" stroke-dasharray="5,2" d="M1588,-75.02C1588,-91.1 1588,-115.09 1588,-131.25"/>
</g>
<!-- ann5 -->
<g id="node10" class="node">
<title>ann5</title>
<polygon fill="none" stroke="gray" points="1334.5,-180.5 1163.5,-180.5 1163.5,-118.5 1340.5,-118.5 1340.5,-174.5 1334.5,-180.5"/>
<polyline fill="none" stroke="gray" points="1334.5,-180.5 1334.5,-174.5 "/>
<polyline fill="none" stroke="gray" points="1340.5,-174.5 1334.5,-174.5 "/>
<g id="a_node10_11"><a xlink:href="http://www.w3.org/ns/prov#type" xlink:title="&lt;TABLE&gt;">
<text text-anchor="start" x="1174" y="-166.5" font-family="Times,serif" font-size="10.00">prov:type</text>
</a>
</g>
<text text-anchor="start" x="1225" y="-166.5" font-family="Times,serif" font-size="10.00">geom:Point</text>
<g id="a_node10_12"><a xlink:href="https://robot-schema.org/coordinates/x" xlink:title="&lt;TABLE&gt;">
<text text-anchor="start" x="1174" y="-153.5" font-family="Times,serif" font-size="10.00">coord:x</text>
</a>
</g>
<text text-anchor="start" x="1225" y="-153.5" font-family="Times,serif" font-size="10.00">43.432926177978516</text>
<g id="a_node10_13"><a xlink:href="https://robot-schema.org/coordinates/y" xlink:title="&lt;TABLE&gt;">
<text text-anchor="start" x="1174" y="-140.5" font-family="Times,serif" font-size="10.00">coord:y</text>
</a>
</g>
<text text-anchor="start" x="1225" y="-140.5" font-family="Times,serif" font-size="10.00">38.493873596191406</text>
<g id="a_node10_14"><a xlink:href="https://robot-schema.org/coordinates/z" xlink:title="&lt;TABLE&gt;">
<text text-anchor="start" x="1174" y="-127.5" font-family="Times,serif" font-size="10.00">coord:z</text>
</a>
</g>
<text text-anchor="start" x="1225" y="-127.5" font-family="Times,serif" font-size="10.00">0.0</text>
</g>
<!-- ann5&#45;&gt;n5 -->
<g id="edge5" class="edge">
<title>ann5&#45;&gt;n5</title>
<path fill="none" stroke="gray" stroke-dasharray="5,2" d="M1252,-180.65C1252,-198 1252,-219.17 1252,-233.73"/>
</g>
<!-- n6 -->
<g id="node11" class="node">
<title>n6</title>
<g id="a_node11"><a xlink:href="https://www.sesame-project.org/scenarios/tasks/waypoints/classroom_c025-w001-R0.00_P0.00_Y0.93" xlink:title="pose:classroom_c025&#45;w001&#45;R0.00_P0.00_Y0.93">
<ellipse fill="#fffc87" stroke="#808080" cx="916" cy="-149.5" rx="229.36" ry="18"/>
<text text-anchor="middle" x="916" y="-145.8" font-family="Times,serif" font-size="14.00">pose:classroom_c025&#45;w001&#45;R0.00_P0.00_Y0.93</text>
</a>
</g>
</g>
<!-- n6&#45;&gt;n2 -->
<g id="edge13" class="edge">
<title>n6&#45;&gt;n2</title>
<path fill="none" stroke="black" d="M1001.41,-166.23C1046.86,-173.91 1103.78,-182.47 1155,-187 1472.97,-215.15 1554.62,-182.04 1873,-205 1925.77,-208.81 2058.89,-225.28 2153.79,-237.43"/>
<polygon fill="black" stroke="black" points="2153.35,-240.9 2163.71,-238.7 2154.24,-233.96 2153.35,-240.9"/>
<text text-anchor="middle" x="2006" y="-208" font-family="Times,serif" font-size="10.00">hadMember</text>
</g>
<!-- n7 -->
<g id="node13" class="node">
<title>n7</title>
<g id="a_node13"><a xlink:href="https://www.sesame-project.org/scenarios/tasks/orientation/R0.00_P0.00_Y0.93" xlink:title="orientation:R0.00_P0.00_Y0.93">
<ellipse fill="#fffc87" stroke="#808080" cx="439" cy="-252" rx="154.07" ry="18"/>
<text text-anchor="middle" x="439" y="-248.3" font-family="Times,serif" font-size="14.00">orientation:R0.00_P0.00_Y0.93</text>
</a>
</g>
</g>
<!-- n6&#45;&gt;n7 -->
<g id="edge14" class="edge">
<title>n6&#45;&gt;n7</title>
<path fill="none" stroke="black" d="M860.73,-167.08C811.14,-181.51 736.2,-202.22 670,-216 630.9,-224.14 587.71,-231.2 549.36,-236.8"/>
<polygon fill="black" stroke="black" points="548.6,-233.37 539.2,-238.26 549.6,-240.3 548.6,-233.37"/>
<text text-anchor="middle" x="749" y="-208" font-family="Times,serif" font-size="10.00">hadMember</text>
</g>
<!-- ann6 -->
<g id="node12" class="node">
<title>ann6</title>
<polygon fill="none" stroke="gray" points="973.5,-75 852.5,-75 852.5,-39 979.5,-39 979.5,-69 973.5,-75"/>
<polyline fill="none" stroke="gray" points="973.5,-75 973.5,-69 "/>
<polyline fill="none" stroke="gray" points="979.5,-69 973.5,-69 "/>
<g id="a_node12_15"><a xlink:href="http://www.w3.org/ns/prov#type" xlink:title="&lt;TABLE&gt;">
<text text-anchor="start" x="863" y="-54" font-family="Times,serif" font-size="10.00">prov:type</text>
</a>
</g>
<text text-anchor="start" x="914" y="-54" font-family="Times,serif" font-size="10.00">geom:Pose</text>
</g>
<!-- ann6&#45;&gt;n6 -->
<g id="edge6" class="edge">
<title>ann6&#45;&gt;n6</title>
<path fill="none" stroke="gray" stroke-dasharray="5,2" d="M916,-75.02C916,-91.1 916,-115.09 916,-131.25"/>
</g>
<!-- ann7 -->
<g id="node14" class="node">
<title>ann7</title>
<polygon fill="none" stroke="gray" points="185.5,-187 16.5,-187 16.5,-112 191.5,-112 191.5,-181 185.5,-187"/>
<polyline fill="none" stroke="gray" points="185.5,-187 185.5,-181 "/>
<polyline fill="none" stroke="gray" points="191.5,-181 185.5,-181 "/>
<g id="a_node14_16"><a xlink:href="http://www.w3.org/ns/prov#type" xlink:title="&lt;TABLE&gt;">
<text text-anchor="start" x="27" y="-172.5" font-family="Times,serif" font-size="10.00">prov:type</text>
</a>
</g>
<text text-anchor="start" x="87" y="-172.5" font-family="Times,serif" font-size="10.00">geom:EulerAngles</text>
<g id="a_node14_17"><a xlink:href="https://robot-schema.org/rotation/pitch" xlink:title="&lt;TABLE&gt;">
<text text-anchor="start" x="27" y="-159.5" font-family="Times,serif" font-size="10.00">angle:pitch</text>
</a>
</g>
<text text-anchor="start" x="87" y="-159.5" font-family="Times,serif" font-size="10.00">0.0</text>
<g id="a_node14_18"><a xlink:href="https://robot-schema.org/rotation/roll" xlink:title="&lt;TABLE&gt;">
<text text-anchor="start" x="27" y="-146.5" font-family="Times,serif" font-size="10.00">angle:roll</text>
</a>
</g>
<text text-anchor="start" x="87" y="-146.5" font-family="Times,serif" font-size="10.00">0.0</text>
<g id="a_node14_19"><a xlink:href="https://robot-schema.org/rotation/yaw" xlink:title="&lt;TABLE&gt;">
<text text-anchor="start" x="27" y="-133.5" font-family="Times,serif" font-size="10.00">angle:yaw</text>
</a>
</g>
<text text-anchor="start" x="87" y="-133.5" font-family="Times,serif" font-size="10.00">0.925</text>
<g id="a_node14_20"><a xlink:href="https://robot-schema.org/axes" xlink:title="&lt;TABLE&gt;">
<text text-anchor="start" x="27" y="-120.5" font-family="Times,serif" font-size="10.00">geom:axes</text>
</a>
</g>
<text text-anchor="start" x="87" y="-120.5" font-family="Times,serif" font-size="10.00">sxyz</text>
</g>
<!-- ann7&#45;&gt;n7 -->
<g id="edge7" class="edge">
<title>ann7&#45;&gt;n7</title>
<path fill="none" stroke="gray" stroke-dasharray="5,2" d="M191.63,-183.91C194.79,-184.98 197.92,-186.01 201,-187 259.35,-205.77 326.92,-223.58 375.12,-235.62"/>
</g>
<!-- n8 -->
<g id="node15" class="node">
<title>n8</title>
<g id="a_node15"><a xlink:href="https://www.sesame-project.org/scenarios/tasks/waypoints/classroom_c025-w002-R0.00_P0.00_Y0.93" xlink:title="pose:classroom_c025&#45;w002&#45;R0.00_P0.00_Y0.93">
<ellipse fill="#fffc87" stroke="#808080" cx="439" cy="-149.5" rx="229.36" ry="18"/>
<text text-anchor="middle" x="439" y="-145.8" font-family="Times,serif" font-size="14.00">pose:classroom_c025&#45;w002&#45;R0.00_P0.00_Y0.93</text>
</a>
</g>
</g>
<!-- n8&#45;&gt;n5 -->
<g id="edge15" class="edge">
<title>n8&#45;&gt;n5</title>
<path fill="none" stroke="black" d="M471.69,-167.37C503.89,-183.07 554.95,-205.58 602,-216 694.13,-236.4 942.68,-245.08 1104.36,-248.65"/>
<polygon fill="black" stroke="black" points="1104.32,-252.15 1114.39,-248.87 1104.47,-245.15 1104.32,-252.15"/>
<text text-anchor="middle" x="634" y="-208" font-family="Times,serif" font-size="10.00">hadMember</text>
</g>
<!-- n8&#45;&gt;n7 -->
<g id="edge16" class="edge">
<title>n8&#45;&gt;n7</title>
<path fill="none" stroke="black" d="M439,-167.55C439,-182.92 439,-205.81 439,-223.73"/>
<polygon fill="black" stroke="black" points="435.5,-223.87 439,-233.87 442.5,-223.87 435.5,-223.87"/>
<text text-anchor="middle" x="471" y="-208" font-family="Times,serif" font-size="10.00">hadMember</text>
</g>
<!-- ann8 -->
<g id="node16" class="node">
<title>ann8</title>
<polygon fill="none" stroke="gray" points="496.5,-75 375.5,-75 375.5,-39 502.5,-39 502.5,-69 496.5,-75"/>
<polyline fill="none" stroke="gray" points="496.5,-75 496.5,-69 "/>
<polyline fill="none" stroke="gray" points="502.5,-69 496.5,-69 "/>
<g id="a_node16_21"><a xlink:href="http://www.w3.org/ns/prov#type" xlink:title="&lt;TABLE&gt;">
<text text-anchor="start" x="386" y="-54" font-family="Times,serif" font-size="10.00">prov:type</text>
</a>
</g>
<text text-anchor="start" x="437" y="-54" font-family="Times,serif" font-size="10.00">geom:Pose</text>
</g>
<!-- ann8&#45;&gt;n8 -->
<g id="edge8" class="edge">
<title>ann8&#45;&gt;n8</title>
<path fill="none" stroke="gray" stroke-dasharray="5,2" d="M439,-75.02C439,-91.1 439,-115.09 439,-131.25"/>
</g>
</g>
</svg>
