<?xml version="1.0" encoding="UTF-8" standalone="no"?>
<!DOCTYPE svg PUBLIC "-//W3C//DTD SVG 1.1//EN"
 "http://www.w3.org/Graphics/SVG/1.1/DTD/svg11.dtd">
<!-- Generated by graphviz version 2.43.0 (0)
 -->
<!-- Title: G Pages: 1 -->
<svg width="888pt" height="255pt"
 viewBox="0.00 0.00 888.00 255.00" xmlns="http://www.w3.org/2000/svg" xmlns:xlink="http://www.w3.org/1999/xlink">
<g id="graph0" class="graph" transform="scale(1 1) rotate(0) translate(4 251)">
<title>G</title>
<polygon fill="white" stroke="transparent" points="-4,4 -4,-251 884,-251 884,4 -4,4"/>
<g id="clust1" class="cluster">
<title>cluster_c1</title>
<g id="a_clust1"><a xlink:href="https://www.sesame-project.org/scenarios/robots/tiago1_bundle" xlink:title="robot:tiago1_bundle">
<polygon fill="none" stroke="black" points="8,-8 8,-239 872,-239 872,-8 8,-8"/>
<text text-anchor="middle" x="440" y="-15.8" font-family="Times,serif" font-size="14.00">robot:tiago1_bundle</text>
</a>
</g>
</g>
<!-- n1 -->
<g id="node1" class="node">
<title>n1</title>
<g id="a_node1"><a xlink:href="https://www.sesame-project.org/scenarios/robots/tiago1" xlink:title="robot:tiago1">
<ellipse fill="#fffc87" stroke="#808080" cx="438" cy="-130" rx="67.69" ry="18"/>
<text text-anchor="middle" x="438" y="-126.3" font-family="Times,serif" font-size="14.00">robot:tiago1</text>
</a>
</g>
</g>
<!-- n3 -->
<g id="node5" class="node">
<title>n3</title>
<g id="a_node5"><a xlink:href="https://www.sesame-project.org/scenarios/robots/tiago1/software-config" xlink:title="tiago1:software&#45;config">
<ellipse fill="#fffc87" stroke="#808080" cx="701" cy="-213" rx="114.28" ry="18"/>
<text text-anchor="middle" x="701" y="-209.3" font-family="Times,serif" font-size="14.00">tiago1:software&#45;config</text>
</a>
</g>
</g>
<!-- n1&#45;&gt;n3 -->
<g id="edge7" class="edge">
<title>n1&#45;&gt;n3</title>
<path fill="none" stroke="black" d="M480.55,-144.1C524.21,-157.55 592.49,-178.58 641.5,-193.67"/>
<polygon fill="black" stroke="black" points="640.75,-197.11 651.34,-196.7 642.81,-190.42 640.75,-197.11"/>
<text text-anchor="middle" x="617" y="-169" font-family="Times,serif" font-size="10.00">hadMember</text>
</g>
<!-- n4 -->
<g id="node7" class="node">
<title>n4</title>
<g id="a_node7"><a xlink:href="https://www.sesame-project.org/scenarios/robots/tiago1/hardware-config" xlink:title="tiago1:hardware&#45;config">
<ellipse fill="#fffc87" stroke="#808080" cx="401" cy="-213" rx="118.08" ry="18"/>
<text text-anchor="middle" x="401" y="-209.3" font-family="Times,serif" font-size="14.00">tiago1:hardware&#45;config</text>
</a>
</g>
</g>
<!-- n1&#45;&gt;n4 -->
<g id="edge8" class="edge">
<title>n1&#45;&gt;n4</title>
<path fill="none" stroke="black" d="M430.15,-148.18C425.2,-159.02 418.7,-173.26 413.09,-185.53"/>
<polygon fill="black" stroke="black" points="409.81,-184.3 408.84,-194.85 416.17,-187.21 409.81,-184.3"/>
<text text-anchor="middle" x="453" y="-169" font-family="Times,serif" font-size="10.00">hadMember</text>
</g>
<!-- n5 -->
<g id="node9" class="node">
<title>n5</title>
<g id="a_node9"><a xlink:href="https://www.sesame-project.org/scenarios/robots/tiago1/gazebo_model" xlink:title="tiago1:gazebo_model">
<ellipse fill="#fffc87" stroke="#808080" cx="146" cy="-213" rx="108.58" ry="18"/>
<text text-anchor="middle" x="146" y="-209.3" font-family="Times,serif" font-size="14.00">tiago1:gazebo_model</text>
</a>
</g>
</g>
<!-- n1&#45;&gt;n5 -->
<g id="edge6" class="edge">
<title>n1&#45;&gt;n5</title>
<path fill="none" stroke="black" d="M393.01,-143.48C343.74,-157.15 264.36,-179.17 208.92,-194.55"/>
<polygon fill="black" stroke="black" points="207.91,-191.19 199.21,-197.24 209.78,-197.94 207.91,-191.19"/>
<text text-anchor="middle" x="341" y="-169" font-family="Times,serif" font-size="10.00">hadMember</text>
</g>
<!-- ann1 -->
<g id="node2" class="node">
<title>ann1</title>
<polygon fill="none" stroke="gray" points="497,-75 373,-75 373,-39 503,-39 503,-69 497,-75"/>
<polyline fill="none" stroke="gray" points="497,-75 497,-69 "/>
<polyline fill="none" stroke="gray" points="503,-69 497,-69 "/>
<g id="a_node2_0"><a xlink:href="http://www.w3.org/ns/prov#type" xlink:title="&lt;TABLE&gt;">
<text text-anchor="start" x="383" y="-54" font-family="Times,serif" font-size="10.00">prov:type</text>
</a>
</g>
<text text-anchor="start" x="434" y="-54" font-family="Times,serif" font-size="10.00">exsce:robot</text>
</g>
<!-- ann1&#45;&gt;n1 -->
<g id="edge1" class="edge">
<title>ann1&#45;&gt;n1</title>
<path fill="none" stroke="gray" stroke-dasharray="5,2" d="M438,-75.19C438,-86.35 438,-100.84 438,-111.97"/>
</g>
<!-- n2 -->
<g id="node3" class="node">
<title>n2</title>
<g id="a_node3"><a xlink:href="https://www.sesame-project.org/scenarios/robots/tiago1/agent" xlink:title="tiago1:agent">
<polygon fill="#fed37f" stroke="black" points="695.92,-135.56 610,-148 524.08,-135.56 524.16,-115.44 695.84,-115.44 695.92,-135.56"/>
<text text-anchor="middle" x="610" y="-126.3" font-family="Times,serif" font-size="14.00">tiago1:agent</text>
</a>
</g>
</g>
<!-- ann2 -->
<g id="node4" class="node">
<title>ann2</title>
<polygon fill="none" stroke="gray" points="691,-75 523,-75 523,-39 697,-39 697,-69 691,-75"/>
<polyline fill="none" stroke="gray" points="691,-75 691,-69 "/>
<polyline fill="none" stroke="gray" points="697,-69 691,-69 "/>
<g id="a_node4_1"><a xlink:href="http://www.w3.org/ns/prov#type" xlink:title="&lt;TABLE&gt;">
<text text-anchor="start" x="533" y="-54" font-family="Times,serif" font-size="10.00">prov:type</text>
</a>
</g>
<text text-anchor="start" x="584" y="-54" font-family="Times,serif" font-size="10.00">prov:SoftwareAgent</text>
</g>
<!-- ann2&#45;&gt;n2 -->
<g id="edge2" class="edge">
<title>ann2&#45;&gt;n2</title>
<path fill="none" stroke="gray" stroke-dasharray="5,2" d="M610,-75.19C610,-87.5 610,-103.86 610,-115.29"/>
</g>
<!-- ann3 -->
<g id="node6" class="node">
<title>ann3</title>
<polygon fill="none" stroke="gray" points="858,-148 714,-148 714,-112 864,-112 864,-142 858,-148"/>
<polyline fill="none" stroke="gray" points="858,-148 858,-142 "/>
<polyline fill="none" stroke="gray" points="864,-142 858,-142 "/>
<g id="a_node6_2"><a xlink:href="http://www.w3.org/ns/prov#type" xlink:title="&lt;TABLE&gt;">
<text text-anchor="start" x="724" y="-127" font-family="Times,serif" font-size="10.00">prov:type</text>
</a>
</g>
<text text-anchor="start" x="775" y="-127" font-family="Times,serif" font-size="10.00">software&#45;config</text>
</g>
<!-- ann3&#45;&gt;n3 -->
<g id="edge3" class="edge">
<title>ann3&#45;&gt;n3</title>
<path fill="none" stroke="gray" stroke-dasharray="5,2" d="M770.34,-148.18C755.3,-162.02 734.28,-181.37 719.33,-195.12"/>
</g>
<!-- ann4 -->
<g id="node8" class="node">
<title>ann4</title>
<polygon fill="none" stroke="gray" points="346,-148 196,-148 196,-112 352,-112 352,-142 346,-148"/>
<polyline fill="none" stroke="gray" points="346,-148 346,-142 "/>
<polyline fill="none" stroke="gray" points="352,-142 346,-142 "/>
<g id="a_node8_3"><a xlink:href="http://www.w3.org/ns/prov#type" xlink:title="&lt;TABLE&gt;">
<text text-anchor="start" x="206" y="-127" font-family="Times,serif" font-size="10.00">prov:type</text>
</a>
</g>
<text text-anchor="start" x="257" y="-127" font-family="Times,serif" font-size="10.00">hardware&#45;config</text>
</g>
<!-- ann4&#45;&gt;n4 -->
<g id="edge4" class="edge">
<title>ann4&#45;&gt;n4</title>
<path fill="none" stroke="gray" stroke-dasharray="5,2" d="M276.18,-148.34C278.24,-157.96 282.24,-169.46 290,-177 300.15,-186.85 313.04,-193.94 326.43,-199.03"/>
</g>
<!-- ann5 -->
<g id="node10" class="node">
<title>ann5</title>
<polygon fill="none" stroke="gray" points="171.5,-148 16.5,-148 16.5,-112 177.5,-112 177.5,-142 171.5,-148"/>
<polyline fill="none" stroke="gray" points="171.5,-148 171.5,-142 "/>
<polyline fill="none" stroke="gray" points="177.5,-142 171.5,-142 "/>
<g id="a_node10_4"><a xlink:href="http://www.w3.org/ns/prov#type" xlink:title="&lt;TABLE&gt;">
<text text-anchor="start" x="27" y="-127" font-family="Times,serif" font-size="10.00">prov:type</text>
</a>
</g>
<g id="a_node10_5"><a xlink:href="http://wiki.ros.org/GazeboModel" xlink:title="&lt;TABLE&gt;">
<text text-anchor="start" x="78" y="-127" font-family="Times,serif" font-size="10.00">ros:GazeboModel</text>
</a>
</g>
</g>
<!-- ann5&#45;&gt;n5 -->
<g id="edge5" class="edge">
<title>ann5&#45;&gt;n5</title>
<path fill="none" stroke="gray" stroke-dasharray="5,2" d="M107.39,-148.18C115.71,-161.92 127.31,-181.11 135.62,-194.85"/>
</g>
</g>
</svg>
