<?xml version="1.0" encoding="UTF-8" standalone="no"?>
<!DOCTYPE svg PUBLIC "-//W3C//DTD SVG 1.1//EN"
 "http://www.w3.org/Graphics/SVG/1.1/DTD/svg11.dtd">
<!-- Generated by graphviz version 2.43.0 (0)
 -->
<!-- Title: G Pages: 1 -->
<svg width="1566pt" height="294pt"
 viewBox="0.00 0.00 1566.00 294.00" xmlns="http://www.w3.org/2000/svg" xmlns:xlink="http://www.w3.org/1999/xlink">
<g id="graph0" class="graph" transform="scale(1 1) rotate(0) translate(4 290)">
<title>G</title>
<polygon fill="white" stroke="transparent" points="-4,4 -4,-290 1562,-290 1562,4 -4,4"/>
<g id="clust1" class="cluster">
<title>cluster_c1</title>
<g id="a_clust1"><a xlink:href="https://www.sesame-project.org/scenarios/environments/classroom_c018_bundle" xlink:title="env:classroom_c018_bundle">
<polygon fill="none" stroke="black" points="8,-8 8,-278 1550,-278 1550,-8 8,-8"/>
<text text-anchor="middle" x="779" y="-15.8" font-family="Times,serif" font-size="14.00">env:classroom_c018_bundle</text>
</a>
</g>
</g>
<!-- n1 -->
<g id="node1" class="node">
<title>n1</title>
<g id="a_node1"><a xlink:href="https://www.sesame-project.org/scenarios/tasks/waypoints/classroom_c018-w001-R0.00_P0.00_Y-0.64" xlink:title="pose:classroom_c018&#45;w001&#45;R0.00_P0.00_Y&#45;0.64">
<ellipse fill="#fffc87" stroke="#808080" cx="1116" cy="-149.5" rx="231.26" ry="18"/>
<text text-anchor="middle" x="1116" y="-145.8" font-family="Times,serif" font-size="14.00">pose:classroom_c018&#45;w001&#45;R0.00_P0.00_Y&#45;0.64</text>
</a>
</g>
</g>
<!-- n2 -->
<g id="node3" class="node">
<title>n2</title>
<g id="a_node3"><a xlink:href="https://www.sesame-project.org/scenarios/tasks/points/classroom_c018-w001" xlink:title="point:classroom_c018&#45;w001">
<ellipse fill="#fffc87" stroke="#808080" cx="1285" cy="-252" rx="139.98" ry="18"/>
<text text-anchor="middle" x="1285" y="-248.3" font-family="Times,serif" font-size="14.00">point:classroom_c018&#45;w001</text>
</a>
</g>
</g>
<!-- n1&#45;&gt;n2 -->
<g id="edge6" class="edge">
<title>n1&#45;&gt;n2</title>
<path fill="none" stroke="black" d="M1144.67,-167.55C1173.12,-184.47 1216.87,-210.49 1247.95,-228.97"/>
<polygon fill="black" stroke="black" points="1246.37,-232.1 1256.75,-234.2 1249.95,-226.08 1246.37,-232.1"/>
<text text-anchor="middle" x="1257" y="-208" font-family="Times,serif" font-size="10.00">hadMember</text>
</g>
<!-- n3 -->
<g id="node5" class="node">
<title>n3</title>
<g id="a_node5"><a xlink:href="https://www.sesame-project.org/scenarios/tasks/orientation/R0.00_P0.00_Y-0.64" xlink:title="orientation:R0.00_P0.00_Y&#45;0.64">
<ellipse fill="#fffc87" stroke="#808080" cx="779" cy="-252" rx="155.97" ry="18"/>
<text text-anchor="middle" x="779" y="-248.3" font-family="Times,serif" font-size="14.00">orientation:R0.00_P0.00_Y&#45;0.64</text>
</a>
</g>
</g>
<!-- n1&#45;&gt;n3 -->
<g id="edge7" class="edge">
<title>n1&#45;&gt;n3</title>
<path fill="none" stroke="black" d="M1060.73,-166.98C1000.82,-184.85 905.37,-213.32 842.44,-232.08"/>
<polygon fill="black" stroke="black" points="841.21,-228.79 832.63,-235.01 843.21,-235.5 841.21,-228.79"/>
<text text-anchor="middle" x="959" y="-208" font-family="Times,serif" font-size="10.00">hadMember</text>
</g>
<!-- ann1 -->
<g id="node2" class="node">
<title>ann1</title>
<polygon fill="none" stroke="gray" points="1173.5,-75 1052.5,-75 1052.5,-39 1179.5,-39 1179.5,-69 1173.5,-75"/>
<polyline fill="none" stroke="gray" points="1173.5,-75 1173.5,-69 "/>
<polyline fill="none" stroke="gray" points="1179.5,-69 1173.5,-69 "/>
<g id="a_node2_0"><a xlink:href="http://www.w3.org/ns/prov#type" xlink:title="&lt;TABLE&gt;">
<text text-anchor="start" x="1063" y="-54" font-family="Times,serif" font-size="10.00">prov:type</text>
</a>
</g>
<text text-anchor="start" x="1114" y="-54" font-family="Times,serif" font-size="10.00">geom:Pose</text>
</g>
<!-- ann1&#45;&gt;n1 -->
<g id="edge1" class="edge">
<title>ann1&#45;&gt;n1</title>
<path fill="none" stroke="gray" stroke-dasharray="5,2" d="M1116,-75.02C1116,-91.1 1116,-115.09 1116,-131.25"/>
</g>
<!-- ann2 -->
<g id="node4" class="node">
<title>ann2</title>
<polygon fill="none" stroke="gray" points="1536.5,-180.5 1365.5,-180.5 1365.5,-118.5 1542.5,-118.5 1542.5,-174.5 1536.5,-180.5"/>
<polyline fill="none" stroke="gray" points="1536.5,-180.5 1536.5,-174.5 "/>
<polyline fill="none" stroke="gray" points="1542.5,-174.5 1536.5,-174.5 "/>
<g id="a_node4_1"><a xlink:href="http://www.w3.org/ns/prov#type" xlink:title="&lt;TABLE&gt;">
<text text-anchor="start" x="1376" y="-166.5" font-family="Times,serif" font-size="10.00">prov:type</text>
</a>
</g>
<text text-anchor="start" x="1427" y="-166.5" font-family="Times,serif" font-size="10.00">geom:Point</text>
<g id="a_node4_2"><a xlink:href="https://robot-schema.org/coordinates/x" xlink:title="&lt;TABLE&gt;">
<text text-anchor="start" x="1376" y="-153.5" font-family="Times,serif" font-size="10.00">coord:x</text>
</a>
</g>
<text text-anchor="start" x="1427" y="-153.5" font-family="Times,serif" font-size="10.00">48.26420974731445</text>
<g id="a_node4_3"><a xlink:href="https://robot-schema.org/coordinates/y" xlink:title="&lt;TABLE&gt;">
<text text-anchor="start" x="1376" y="-140.5" font-family="Times,serif" font-size="10.00">coord:y</text>
</a>
</g>
<text text-anchor="start" x="1427" y="-140.5" font-family="Times,serif" font-size="10.00">24.618297576904297</text>
<g id="a_node4_4"><a xlink:href="https://robot-schema.org/coordinates/z" xlink:title="&lt;TABLE&gt;">
<text text-anchor="start" x="1376" y="-127.5" font-family="Times,serif" font-size="10.00">coord:z</text>
</a>
</g>
<text text-anchor="start" x="1427" y="-127.5" font-family="Times,serif" font-size="10.00">0.0</text>
</g>
<!-- ann2&#45;&gt;n2 -->
<g id="edge2" class="edge">
<title>ann2&#45;&gt;n2</title>
<path fill="none" stroke="gray" stroke-dasharray="5,2" d="M1403.29,-180.65C1373.74,-198.23 1337.58,-219.73 1313.07,-234.31"/>
</g>
<!-- ann3 -->
<g id="node6" class="node">
<title>ann3</title>
<polygon fill="none" stroke="gray" points="860.5,-187 691.5,-187 691.5,-112 866.5,-112 866.5,-181 860.5,-187"/>
<polyline fill="none" stroke="gray" points="860.5,-187 860.5,-181 "/>
<polyline fill="none" stroke="gray" points="866.5,-181 860.5,-181 "/>
<g id="a_node6_5"><a xlink:href="http://www.w3.org/ns/prov#type" xlink:title="&lt;TABLE&gt;">
<text text-anchor="start" x="702" y="-172.5" font-family="Times,serif" font-size="10.00">prov:type</text>
</a>
</g>
<text text-anchor="start" x="762" y="-172.5" font-family="Times,serif" font-size="10.00">geom:EulerAngles</text>
<g id="a_node6_6"><a xlink:href="https://robot-schema.org/rotation/pitch" xlink:title="&lt;TABLE&gt;">
<text text-anchor="start" x="702" y="-159.5" font-family="Times,serif" font-size="10.00">angle:pitch</text>
</a>
</g>
<text text-anchor="start" x="762" y="-159.5" font-family="Times,serif" font-size="10.00">0.0</text>
<g id="a_node6_7"><a xlink:href="https://robot-schema.org/rotation/roll" xlink:title="&lt;TABLE&gt;">
<text text-anchor="start" x="702" y="-146.5" font-family="Times,serif" font-size="10.00">angle:roll</text>
</a>
</g>
<text text-anchor="start" x="762" y="-146.5" font-family="Times,serif" font-size="10.00">0.0</text>
<g id="a_node6_8"><a xlink:href="https://robot-schema.org/rotation/yaw" xlink:title="&lt;TABLE&gt;">
<text text-anchor="start" x="702" y="-133.5" font-family="Times,serif" font-size="10.00">angle:yaw</text>
</a>
</g>
<text text-anchor="start" x="762" y="-133.5" font-family="Times,serif" font-size="10.00">&#45;0.641</text>
<g id="a_node6_9"><a xlink:href="https://robot-schema.org/axes" xlink:title="&lt;TABLE&gt;">
<text text-anchor="start" x="702" y="-120.5" font-family="Times,serif" font-size="10.00">geom:axes</text>
</a>
</g>
<text text-anchor="start" x="762" y="-120.5" font-family="Times,serif" font-size="10.00">sxyz</text>
</g>
<!-- ann3&#45;&gt;n3 -->
<g id="edge3" class="edge">
<title>ann3&#45;&gt;n3</title>
<path fill="none" stroke="gray" stroke-dasharray="5,2" d="M779,-187.07C779,-203.01 779,-220.93 779,-233.74"/>
</g>
<!-- n4 -->
<g id="node7" class="node">
<title>n4</title>
<g id="a_node7"><a xlink:href="https://www.sesame-project.org/scenarios/tasks/waypoints/classroom_c018-w002-R0.00_P0.00_Y-0.64" xlink:title="pose:classroom_c018&#45;w002&#45;R0.00_P0.00_Y&#45;0.64">
<ellipse fill="#fffc87" stroke="#808080" cx="442" cy="-149.5" rx="231.26" ry="18"/>
<text text-anchor="middle" x="442" y="-145.8" font-family="Times,serif" font-size="14.00">pose:classroom_c018&#45;w002&#45;R0.00_P0.00_Y&#45;0.64</text>
</a>
</g>
</g>
<!-- n4&#45;&gt;n3 -->
<g id="edge9" class="edge">
<title>n4&#45;&gt;n3</title>
<path fill="none" stroke="black" d="M497.27,-166.98C557.18,-184.85 652.63,-213.32 715.56,-232.08"/>
<polygon fill="black" stroke="black" points="714.79,-235.5 725.37,-235.01 716.79,-228.79 714.79,-235.5"/>
<text text-anchor="middle" x="692" y="-208" font-family="Times,serif" font-size="10.00">hadMember</text>
</g>
<!-- n5 -->
<g id="node9" class="node">
<title>n5</title>
<g id="a_node9"><a xlink:href="https://www.sesame-project.org/scenarios/tasks/points/classroom_c018-w002" xlink:title="point:classroom_c018&#45;w002">
<ellipse fill="#fffc87" stroke="#808080" cx="299" cy="-252" rx="139.98" ry="18"/>
<text text-anchor="middle" x="299" y="-248.3" font-family="Times,serif" font-size="14.00">point:classroom_c018&#45;w002</text>
</a>
</g>
</g>
<!-- n4&#45;&gt;n5 -->
<g id="edge8" class="edge">
<title>n4&#45;&gt;n5</title>
<path fill="none" stroke="black" d="M417.74,-167.55C393.97,-184.25 357.6,-209.82 331.37,-228.25"/>
<polygon fill="black" stroke="black" points="329.07,-225.59 322.9,-234.2 333.09,-231.32 329.07,-225.59"/>
<text text-anchor="middle" x="393" y="-208" font-family="Times,serif" font-size="10.00">hadMember</text>
</g>
<!-- ann4 -->
<g id="node8" class="node">
<title>ann4</title>
<polygon fill="none" stroke="gray" points="499.5,-75 378.5,-75 378.5,-39 505.5,-39 505.5,-69 499.5,-75"/>
<polyline fill="none" stroke="gray" points="499.5,-75 499.5,-69 "/>
<polyline fill="none" stroke="gray" points="505.5,-69 499.5,-69 "/>
<g id="a_node8_10"><a xlink:href="http://www.w3.org/ns/prov#type" xlink:title="&lt;TABLE&gt;">
<text text-anchor="start" x="389" y="-54" font-family="Times,serif" font-size="10.00">prov:type</text>
</a>
</g>
<text text-anchor="start" x="440" y="-54" font-family="Times,serif" font-size="10.00">geom:Pose</text>
</g>
<!-- ann4&#45;&gt;n4 -->
<g id="edge4" class="edge">
<title>ann4&#45;&gt;n4</title>
<path fill="none" stroke="gray" stroke-dasharray="5,2" d="M442,-75.02C442,-91.1 442,-115.09 442,-131.25"/>
</g>
<!-- ann5 -->
<g id="node10" class="node">
<title>ann5</title>
<polygon fill="none" stroke="gray" points="186.5,-180.5 15.5,-180.5 15.5,-118.5 192.5,-118.5 192.5,-174.5 186.5,-180.5"/>
<polyline fill="none" stroke="gray" points="186.5,-180.5 186.5,-174.5 "/>
<polyline fill="none" stroke="gray" points="192.5,-174.5 186.5,-174.5 "/>
<g id="a_node10_11"><a xlink:href="http://www.w3.org/ns/prov#type" xlink:title="&lt;TABLE&gt;">
<text text-anchor="start" x="26" y="-166.5" font-family="Times,serif" font-size="10.00">prov:type</text>
</a>
</g>
<text text-anchor="start" x="77" y="-166.5" font-family="Times,serif" font-size="10.00">geom:Point</text>
<g id="a_node10_12"><a xlink:href="https://robot-schema.org/coordinates/x" xlink:title="&lt;TABLE&gt;">
<text text-anchor="start" x="26" y="-153.5" font-family="Times,serif" font-size="10.00">coord:x</text>
</a>
</g>
<text text-anchor="start" x="77" y="-153.5" font-family="Times,serif" font-size="10.00">46.25560760498047</text>
<g id="a_node10_13"><a xlink:href="https://robot-schema.org/coordinates/y" xlink:title="&lt;TABLE&gt;">
<text text-anchor="start" x="26" y="-140.5" font-family="Times,serif" font-size="10.00">coord:y</text>
</a>
</g>
<text text-anchor="start" x="77" y="-140.5" font-family="Times,serif" font-size="10.00">21.586545944213867</text>
<g id="a_node10_14"><a xlink:href="https://robot-schema.org/coordinates/z" xlink:title="&lt;TABLE&gt;">
<text text-anchor="start" x="26" y="-127.5" font-family="Times,serif" font-size="10.00">coord:z</text>
</a>
</g>
<text text-anchor="start" x="77" y="-127.5" font-family="Times,serif" font-size="10.00">0.0</text>
</g>
<!-- ann5&#45;&gt;n5 -->
<g id="edge5" class="edge">
<title>ann5&#45;&gt;n5</title>
<path fill="none" stroke="gray" stroke-dasharray="5,2" d="M162.24,-180.52C196.47,-198.16 238.45,-219.79 266.8,-234.4"/>
</g>
</g>
</svg>
